<?xml version="1.0" encoding="UTF-8"?>
<!DOCTYPE svg PUBLIC "-//W3C//DTD SVG 1.1//EN" "http://www.w3.org/Graphics/SVG/1.1/DTD/svg11.dtd">
<!-- Creator: CorelDRAW X7 -->
<svg xmlns="http://www.w3.org/2000/svg" xml:space="preserve" width="1336px" height="763px" version="1.1" style="shape-rendering:geometricPrecision; text-rendering:geometricPrecision; image-rendering:optimizeQuality; fill-rule:evenodd; clip-rule:evenodd"
viewBox="0 0 1336 763"
 xmlns:xlink="http://www.w3.org/1999/xlink">
 <defs>
  <style type="text/css">
   <![CDATA[
    .fil3 {fill:#0B55B1}
    .fil1 {fill:#6FA44A}
    .fil4 {fill:#EFEFEF}
    .fil2 {fill:#FDD853}
    .fil0 {fill:#FEFEFE}
   ]]>
  </style>
 </defs>
 <g id="Camada_x0020_1">
  <metadata id="CorelCorpID_0Corel-Layer"/>
  <path class="fil0" d="M2849 541l227 0 0 -549 -187 0c24,8 56,-5 59,15l0 75c-34,6 -72,-5 -89,20 -14,21 -11,70 -10,99l95 1 -15 98 -79 0 -1 241z"/>
  <g id="_2062837542496">
   <path class="fil1" d="M235 357c6,-6 95,-57 111,-66 33,-18 326,-192 332,-192 7,0 98,55 112,63 27,16 317,184 332,196l-444 259 -443 -260zm-52 345l990 0 0 -690 -990 0 0 690z"/>
   <path class="fil2" d="M535 329c3,-22 11,-34 20,-51 5,-4 18,-23 29,-32 111,-87 250,3 239,123 -1,21 -6,43 -17,57 -10,25 -41,53 -68,64 -121,53 -228,-64 -203,-161zm-300 28l443 260 444 -259c-15,-12 -305,-180 -332,-196 -14,-8 -105,-63 -112,-63 -6,0 -299,174 -332,192 -16,9 -105,60 -111,66z"/>
   <path class="fil3" d="M535 329c-25,97 82,214 203,161 27,-11 58,-39 68,-64l-23 -24c-66,-62 -155,-82 -248,-73z"/>
   <path class="fil3" d="M555 278c62,1 79,-12 157,17 36,13 59,28 87,51 10,7 15,16 24,23 11,-120 -128,-210 -239,-123 -11,9 -24,28 -29,32z"/>
   <path class="fil4" d="M555 278c-9,17 -17,29 -20,51 93,-9 182,11 248,73l23 24c11,-14 16,-36 17,-57 -9,-7 -14,-16 -24,-23 -28,-23 -51,-38 -87,-51 -78,-29 -95,-16 -157,-17z"/>
  </g>
 </g>
</svg>
