<svg width="524" height="562" viewBox="0 0 524 562" fill="none" xmlns="http://www.w3.org/2000/svg">
<path fill-rule="evenodd" clip-rule="evenodd" d="M200.15 286.428C199.09 282.271 199.03 277.862 199.305 274.558C199.578 271.252 200.187 269.051 200.873 266.803C201.557 264.556 202.317 262.261 203.211 259.665C204.105 257.069 205.132 254.17 205.645 252.721C206.157 251.272 206.157 251.272 206.341 252.973C206.525 254.673 206.89 258.074 207.534 261.294C208.179 264.514 209.1 267.554 211.202 269.996C213.304 272.44 216.586 274.287 220.689 275.05C224.792 275.812 229.718 275.49 234.271 275.035C238.825 274.579 243.008 273.989 246.304 273.687C249.601 273.384 252.012 273.37 254.484 273.882C256.956 274.394 259.488 275.432 260.755 275.951C262.022 276.471 262.022 276.472 260.595 277.577C259.17 278.682 256.317 280.893 255.061 282.561C253.807 284.227 254.148 285.351 255.048 286.962C255.947 288.573 257.405 290.672 260.046 293.521C262.686 296.37 266.509 299.969 269.973 302.074C273.438 304.177 276.543 304.788 280.216 304.132C283.889 303.477 288.131 301.557 291.343 299.637C294.557 297.715 296.739 295.794 298.748 293.72C300.756 291.647 302.591 289.42 303.36 287.11C304.129 284.8 303.832 282.406 302.265 279.634C300.698 276.862 297.862 273.711 296.618 271.585C295.375 269.458 295.725 268.356 297.134 267.762C298.545 267.168 301.017 267.083 303.622 266.422C306.225 265.762 308.96 264.524 310.372 263.261C311.785 261.997 311.874 260.707 310.844 258.681C309.816 256.656 307.669 253.897 305.712 251.704C303.755 249.51 301.987 247.883 298.632 245.086C295.277 242.289 290.336 238.323 286.821 234.861C283.308 231.399 281.22 228.441 279.3 225.538C277.38 222.634 275.628 219.783 271.128 216.2C266.629 212.614 259.384 208.296 255.761 206.137C252.139 203.977 252.139 203.977 251.958 202.788C251.78 201.598 251.422 199.217 250.777 195.836C250.131 192.455 249.199 188.073 247.298 183.852C245.397 179.632 242.525 175.574 238.209 171.408C233.891 167.242 228.129 162.966 222.45 159.574C216.773 156.182 211.18 153.671 203.979 151.355C196.776 149.038 187.967 146.916 179.403 145.727C170.84 144.536 162.522 144.277 153.598 145.21C144.675 146.142 135.143 148.267 126.515 151.328C117.887 154.389 110.163 158.386 102.946 163.001C95.7301 167.614 89.0233 172.845 83.569 177.628C78.1157 182.412 73.9171 186.748 69.5256 191.81C65.1344 196.872 60.5507 202.659 56.4482 206.453C52.3446 210.249 48.7234 212.051 45.9101 212.699C43.098 213.346 41.0949 212.839 39.1973 210.996C37.2996 209.152 35.5086 205.971 34.9534 203.166C34.3983 200.361 35.0793 197.932 37.4891 193.871C39.8997 189.811 44.0381 184.121 49.3932 177.985C54.7492 171.85 61.3218 165.27 67.9148 159.611C74.51 153.952 81.1236 149.215 88.2676 144.911C95.4107 140.607 103.084 136.737 112.722 133.136C122.36 129.536 133.961 126.204 145.392 124.144C156.822 122.082 168.08 121.293 177.737 121.308C187.395 121.323 195.452 122.147 205.944 124.533C216.437 126.918 229.364 130.869 239.687 134.955C250.01 139.042 257.729 143.266 265.296 148.314C272.862 153.363 280.277 159.236 287.672 166.519C295.067 173.801 302.443 182.493 308.697 191.704C314.951 200.916 320.084 210.649 323.938 219.953C327.792 229.258 330.367 238.137 332.095 247.24C333.821 256.342 334.702 265.671 334.739 274.775C334.776 283.879 333.974 292.759 332.014 302.415C330.054 312.07 326.936 322.501 322.78 332.409C318.625 342.317 313.429 351.702 307.952 359.831C302.476 367.96 296.718 374.834 291.253 380.548C285.787 386.264 280.613 390.819 273.523 395.911C266.432 401.002 257.423 406.63 250.648 410.445C243.874 414.26 239.336 416.265 233.251 418.474C227.166 420.683 219.535 423.099 213.563 424.038C207.593 424.978 203.282 424.443 200.848 422.846C198.414 421.25 197.856 418.591 197.889 416.59C197.923 414.589 198.549 413.245 200.409 411.487C202.268 409.729 205.362 407.556 209.857 405.222C214.352 402.888 220.247 400.393 225.302 397.675C230.357 394.957 234.572 392.015 238.168 388.862C241.764 385.708 244.74 382.341 247.234 378.859C249.728 375.379 251.737 371.781 252.984 367.987C254.232 364.193 254.716 360.202 254.305 356.016C253.896 351.829 252.591 347.446 250.691 343.292C248.791 339.137 246.295 335.208 242.638 331.023C238.981 326.837 234.163 322.396 230.808 319.438C227.453 316.481 225.562 315.008 221.559 311.749C217.556 308.489 211.443 303.441 207.356 298.965C203.27 294.488 201.209 290.585 200.15 286.428ZM160.269 243.833C157.518 242.807 155.395 241.792 152.969 241.538C150.543 241.284 147.817 241.792 145.632 243.083C143.448 244.374 141.806 246.451 139.984 248.989C138.162 251.526 136.159 254.525 133.169 258.224C130.179 261.924 126.201 266.325 122.556 270.063C118.913 273.8 115.602 276.873 111.17 280.221C106.74 283.569 101.189 287.191 95.4085 290.305C89.6286 293.419 83.6183 296.026 76.5889 298.009C69.5584 299.991 61.508 301.35 55.4608 302.083C49.4155 302.817 45.3726 302.927 41.4974 302.857C37.6233 302.788 33.9159 302.539 29.4049 301.823C24.8928 301.107 19.5756 299.923 14.9745 299.452C10.3731 298.98 6.48685 299.222 4.29308 299.798C2.09954 300.374 1.59978 301.284 1.69509 302.717C1.78931 304.15 2.48058 306.105 6.35054 308.2C10.2196 310.294 17.2683 312.528 24.9195 313.933C32.5715 315.337 40.8276 315.913 49.6808 315.555C58.534 315.199 67.9834 313.909 76.8255 311.658C85.6663 309.407 93.898 306.196 101.816 301.912C109.736 297.627 117.342 292.272 124.067 286.599C130.792 280.925 136.637 274.934 140.525 270.889C144.413 266.844 146.344 264.745 148.19 263.36C150.037 261.977 151.798 261.307 153.524 261.18C155.249 261.054 156.939 261.469 158.371 262.955C159.802 264.442 160.976 267 160.277 270.231C159.577 273.46 157.003 277.36 152.3 282.088C147.597 286.814 140.766 292.368 133.204 298.087C125.643 303.807 117.352 309.693 109.593 314.645C101.836 319.596 94.6099 323.614 87.5169 326.472C80.4252 329.331 73.4664 331.031 66.9409 332.136C60.4154 333.242 54.3241 333.754 48.9221 333.976C43.5199 334.199 38.8071 334.133 33.8812 333.996C28.9542 333.859 23.8144 333.651 20.4481 334.343C17.081 335.035 15.4885 336.627 15.3196 338.311C15.1505 339.995 16.4051 341.772 20.182 342.946C23.9588 344.122 30.2581 344.698 37.655 344.939C45.0519 345.181 53.5478 345.091 60.7463 344.582C67.9445 344.074 73.8455 343.147 76.7958 342.683C79.7462 342.219 79.7461 342.219 79.3733 342.964C79.0006 343.709 78.2551 345.199 76.8983 347.47C75.5412 349.741 73.5738 352.794 71.153 357.183C68.733 361.573 65.8584 367.301 63.8062 372.426C61.7538 377.551 60.5229 382.072 59.762 386.109C59.0021 390.146 58.7123 393.7 59.1465 396.26C59.5817 398.82 60.7391 400.389 62.3078 401.173C63.8768 401.958 65.8554 401.958 67.7509 400.897C69.6455 399.836 71.4552 397.713 73.0118 394.403C74.5695 391.093 75.872 386.594 77.2597 381.957C78.6474 377.32 80.1199 372.545 82.0625 367.644C84.0053 362.741 86.4181 357.712 88.9004 353.423C91.3829 349.135 93.9329 345.587 96.9805 342.206C100.029 338.826 103.575 335.614 108.134 332.012C112.693 328.412 118.266 324.423 124.642 319.879C131.018 315.335 138.199 310.236 145.155 305.6C152.112 300.963 158.845 296.788 163.701 295.272C168.557 293.756 171.535 294.9 173.092 297.093C174.649 299.283 174.784 302.522 173.692 305.053C172.602 307.584 170.285 309.406 167.172 311.252C164.059 313.097 160.149 314.965 155.78 317.307C151.412 319.648 146.585 322.463 141.421 325.773C136.255 329.083 130.753 332.89 125.455 337.526C120.158 342.163 115.066 347.631 110.788 353.055C106.511 358.479 103.047 363.86 100.404 368.746C97.7619 373.629 95.94 378.018 94.4018 382.749C92.8626 387.481 91.6072 392.558 90.8083 396.918C90.0107 401.279 89.6707 404.923 89.8641 408.711C90.0577 412.5 90.7849 416.433 91.5755 418.654C92.366 420.874 93.2211 421.381 94.5832 421.535C95.9452 421.691 97.8153 421.494 99.0666 420.229C100.319 418.963 100.953 416.63 101.424 413.038C101.896 409.445 102.207 404.595 103.298 399.079C104.391 393.564 106.266 387.384 109.121 381.012C111.975 374.641 115.813 368.078 120.137 362.13C124.462 356.182 129.278 350.849 132.529 347.485C135.779 344.122 137.465 342.727 140.239 340.75C143.014 338.772 146.874 336.212 149.742 334.423C152.609 332.634 154.483 331.617 157.331 330.181C160.18 328.745 164.003 326.892 166.855 325.486C169.708 324.08 171.59 323.122 174.181 321.619C176.773 320.116 180.073 318.07 182.681 317.026C185.288 315.982 187.2 315.941 189.073 316.676C190.946 317.411 192.779 318.922 193.461 321.254C194.143 323.586 193.675 326.74 192.397 329.343C191.121 331.948 189.036 334 186.711 335.743C184.387 337.487 181.822 338.922 178.312 340.695C174.802 342.468 170.346 344.58 166.645 346.263C162.945 347.948 160 349.204 156.957 350.873C153.913 352.541 150.771 354.622 147.785 357.188C144.797 359.753 141.965 362.803 139.877 365.235C137.789 367.668 136.443 369.484 134.2 373.159C131.957 376.835 128.815 382.369 126.509 387.569C124.203 392.77 122.731 397.636 121.799 402.704C120.866 407.773 120.475 413.044 120.44 417.728C120.406 422.413 120.729 426.512 121.067 429.091C121.406 431.67 121.76 432.732 122.858 433.542C123.957 434.354 125.798 434.916 127.44 434.812C129.082 434.707 130.524 433.938 131.484 430.924C132.446 427.909 132.927 422.65 133.409 417.644C133.89 412.638 134.372 407.885 135.499 403.092C136.626 398.299 138.398 393.464 140.629 388.965C142.86 384.466 145.55 380.303 148.231 376.884C150.912 373.464 153.585 370.79 156.318 368.484C159.052 366.178 161.844 364.24 166.197 361.61C170.55 358.981 176.463 355.659 181.507 353.017C186.551 350.375 190.726 348.415 193.985 346.603C197.242 344.793 199.583 343.132 201.406 341.482C203.228 339.833 204.531 338.196 206.593 336.92C208.656 335.645 211.477 334.732 213.725 334.811C215.973 334.891 217.648 335.962 218.752 337.56C219.858 339.158 220.395 341.281 220.183 343.475C219.972 345.669 219.012 347.931 217.346 350.252C215.68 352.574 213.307 354.956 211.319 356.778C209.331 358.6 207.728 359.862 205.528 361.209C203.328 362.557 200.533 363.987 196.973 365.498C193.413 367.01 189.089 368.6 185.274 370.262C181.459 371.922 178.152 373.653 174.436 376.097C170.717 378.543 166.588 381.702 163.69 384.527C160.793 387.352 159.129 389.842 157.416 393.372C155.704 396.902 153.945 401.471 152.835 405.867C151.726 410.262 151.268 414.485 151.291 418.834C151.316 423.184 151.823 427.661 152.354 430.487C152.885 433.313 153.44 434.488 154.573 435.928C155.708 437.369 157.421 439.076 159.304 439.872C161.186 440.668 163.238 440.552 164.698 439.929C166.158 439.307 167.026 438.176 167.026 435.754C167.026 433.332 166.158 429.619 165.706 425.615C165.256 421.611 165.222 417.318 165.66 413.564C166.1 409.81 167.011 406.594 168.669 402.995C170.326 399.398 172.731 395.418 175.598 392.195C178.465 388.972 181.795 386.507 185.922 384.316C190.049 382.124 194.973 380.207 199.342 378.21C203.711 376.213 207.524 374.137 210.516 372.084C213.509 370.031 215.682 368.001 218.054 365.753C220.426 363.505 223 361.039 225.739 359.816C228.479 358.594 231.384 358.614 233.356 359.535C235.327 360.457 236.364 362.279 236.389 364.506C236.413 366.732 235.423 369.362 234.007 371.625C232.592 373.889 230.749 375.788 227.353 378.533C223.956 381.278 219.003 384.871 214.119 387.866C209.236 390.863 204.422 393.261 200.181 395.591C195.939 397.921 192.271 400.182 189.326 402.962C186.382 405.741 184.161 409.04 182.955 411.568C181.749 414.095 181.555 415.852 181.591 417.605C181.628 419.358 181.893 421.107 182.665 423.182C183.438 425.257 184.718 427.657 185.96 429.412C187.204 431.167 188.41 432.278 190.675 433.484C192.94 434.689 196.263 435.99 200.468 436.597C204.673 437.205 209.76 437.121 218.06 435.124C226.36 433.127 237.875 429.217 246.573 425.705C255.27 422.193 261.152 419.078 266.376 415.985C271.601 412.892 276.171 409.821 281.551 405.619C286.93 401.416 293.122 396.083 298.091 391.356C303.061 386.631 306.811 382.511 311.29 376.695C315.768 370.881 320.979 363.369 325.322 356.011C329.665 348.652 333.141 341.447 335.953 334.489C338.764 327.532 340.911 320.821 342.554 314.422C344.195 308.022 345.335 301.934 346.109 296.064C346.885 290.195 347.299 284.544 347.405 278.803C347.511 273.061 347.308 267.228 346.83 261.637C346.353 256.046 345.599 250.698 344.661 245.697C343.724 240.694 342.603 236.037 340.995 230.753C339.387 225.468 337.292 219.554 335.288 214.571C333.284 209.588 331.371 205.535 328.805 200.824C326.241 196.113 323.023 190.745 319.657 185.747C316.291 180.748 312.775 176.119 309.073 171.726C305.372 167.333 301.484 163.177 297.292 159.141C293.098 155.105 288.6 151.189 283.7 147.385C278.801 143.58 273.501 139.887 268.117 136.551C262.735 133.213 257.27 130.232 251.03 127.333C244.79 124.432 237.774 121.616 231.03 119.343C224.286 117.069 217.815 115.34 210.781 113.937C203.747 112.534 196.151 111.457 188.56 110.862C180.97 110.267 173.385 110.154 165.123 110.647C156.86 111.139 147.92 112.237 139.392 113.899C130.866 115.56 122.752 117.785 114.145 120.943C105.538 124.103 96.4358 128.196 88.2615 132.628C80.0861 137.06 72.8396 141.831 66.8918 146.217C60.9449 150.603 56.2986 154.604 51.5622 159.235C46.8277 163.866 42.0032 169.125 37.2905 175.08C32.5775 181.035 27.9764 187.686 25.4049 192.502C22.8334 197.318 22.2926 200.299 22.3438 203.474C22.3951 206.65 23.0403 210.018 23.8307 212.495C24.6214 214.973 25.5584 216.559 27.5943 218.528C29.6313 220.499 32.769 222.851 36.1353 224.397C39.5025 225.943 43.0981 226.681 45.7484 226.957C48.3987 227.231 50.1037 227.044 53.0133 225.844C55.9217 224.644 60.0324 222.433 63.1908 219.804C66.3491 217.175 68.5548 214.131 71.0527 210.688C73.5484 207.245 76.336 203.405 78.8409 200.244C81.3457 197.084 83.5689 194.603 87.7444 190.872C91.9204 187.141 98.0508 182.158 102.71 178.63C107.37 175.103 110.56 173.031 114.791 170.735C119.022 168.44 124.294 165.922 129.524 164.108C134.756 162.294 139.945 161.185 145.344 160.505C150.743 159.824 156.351 159.572 162.171 160.034C167.992 160.496 174.026 161.673 179.927 163.437C185.828 165.203 191.595 167.555 196.963 170.615C202.33 173.675 207.297 177.442 211.156 181.479C215.018 185.516 217.775 189.823 218.957 193.112C220.139 196.401 219.745 198.671 217.96 200.286C216.174 201.901 212.995 202.861 210.078 202.349C207.161 201.836 204.507 199.852 202.177 198.026C199.847 196.199 197.841 194.53 194.572 192.392C191.303 190.253 186.77 187.646 182.577 185.712C178.385 183.779 174.533 182.519 170.299 181.618C166.067 180.718 161.453 180.174 155.556 180.257C149.657 180.339 142.475 181.046 136.618 182.033C130.762 183.018 126.233 184.284 120.328 187.734C114.424 191.182 107.145 196.815 102.353 200.91C97.5632 205.004 95.2612 207.56 91.2662 212.488C87.2711 217.414 81.5845 224.712 76.6851 229.718C71.7858 234.723 67.6751 237.438 62.8026 239.473C57.9309 241.509 52.2984 242.865 46.3751 242.684C40.4518 242.502 34.2377 240.783 29.5236 239.189C24.8098 237.596 21.5961 236.126 19.1332 235.12C16.6704 234.114 14.9571 233.569 13.0389 233.505C11.1208 233.439 8.99583 233.855 7.65634 234.916C6.31664 235.978 5.76265 237.684 5.86924 239.067C5.97583 240.451 6.74392 241.511 8.48178 242.903C10.2207 244.295 12.9303 246.016 17.6617 248.151C22.3951 250.286 29.1509 252.833 36.467 254.025C43.7851 255.219 51.6636 255.058 57.6125 254.169C63.5614 253.279 67.582 251.66 71.836 249.318C76.0902 246.976 80.5787 243.91 84.0904 240.878C87.6009 237.846 90.1355 234.847 93.3767 230.536C96.618 226.224 100.566 220.601 105.031 215.433C109.496 210.266 114.477 205.555 119.888 201.844C125.301 198.132 131.143 195.419 138.609 193.752C146.073 192.085 155.16 191.463 161.396 191.659C167.632 191.856 171.016 192.871 175.303 194.877C179.591 196.882 184.781 199.879 188.47 202.561C192.157 205.244 194.344 207.613 195.852 209.5C197.362 211.388 198.196 212.794 198.757 214.675C199.319 216.554 199.608 218.906 199.246 220.88C198.884 222.851 197.871 224.443 196.411 225.285C194.95 226.127 193.043 226.219 190.392 225.172C187.741 224.123 184.344 221.936 180.458 219.514C176.573 217.091 172.198 214.434 169.027 212.777C165.856 211.119 163.888 210.459 160.925 209.869C157.962 209.28 154.006 208.761 150.022 209.023C146.04 209.285 142.03 210.327 137.379 212.75C132.726 215.173 127.432 218.978 123.397 222.852C119.362 226.727 116.586 230.672 113.06 235.186C109.533 239.701 105.256 244.784 100.526 249.213C95.7956 253.642 90.6118 257.417 85.5774 260.574C80.5429 263.729 75.6569 266.265 71.2164 267.996C66.7762 269.727 62.78 270.65 58.5219 271.236C54.2637 271.823 49.7423 272.074 45.0519 272.069C40.3626 272.064 35.5033 271.802 30.8785 271.048C26.2537 270.294 21.8636 269.048 17.5141 267.866C13.1669 266.683 8.8606 265.564 6.22461 265.251C3.58971 264.938 2.62383 265.431 1.80364 266.089C0.98323 266.746 0.30742 267.568 0.0790346 268.948C-0.150437 270.327 0.0666397 272.265 1.44216 273.983C2.81747 275.703 5.351 277.202 10.661 279.024C15.9718 280.846 24.0571 282.99 34.1454 283.844C44.2337 284.697 56.3242 284.26 65.7243 282.703C75.1235 281.146 81.8333 278.471 88.0117 275.021C94.19 271.572 99.8378 267.352 104.772 262.876C109.708 258.4 113.932 253.671 118.083 248.711C122.234 243.752 126.313 238.561 129.1 235.226C131.887 231.892 133.383 230.413 136.532 228.348C139.682 226.284 144.485 223.633 148.637 222.227C152.787 220.821 156.288 220.659 159.894 221.47C163.501 222.281 167.217 224.063 169.992 226.324C172.767 228.584 174.604 231.323 175.489 234.083C176.374 236.843 176.309 239.624 175.2 241.769C174.09 243.915 171.934 245.425 169.167 245.661C166.4 245.897 163.021 244.859 160.269 243.833ZM243.432 236.748C240.838 234.98 236.712 232.048 234.647 230.582C232.583 229.116 232.583 229.115 232.156 228.753C231.729 228.388 230.873 227.661 234.768 227.243C238.663 226.823 247.309 226.715 251.555 226.485C255.801 226.257 255.647 225.909 260.156 230.047C264.666 234.185 273.841 242.81 278.356 247.191C282.871 251.572 282.726 251.71 279.553 249.949C276.381 248.187 270.18 244.526 266.565 242.85C262.949 241.171 261.918 241.478 259.305 241.319C256.694 241.157 252.497 240.529 250.374 240.185C248.25 239.84 248.198 239.779 247.642 239.449C247.086 239.116 246.026 238.515 243.432 236.748Z" fill="url(#paint0_linear_1_3)"/>
<g filter="url(#filter0_d_1_3)">
<path d="M371.739 266.602C371.739 272.621 371.738 278.64 370.96 286.663C370.562 290.776 369.956 295.397 369.17 300.226C368.428 304.778 367.521 309.529 366.469 314.228C365.385 319.076 364.142 323.87 362.562 328.754C360.982 333.642 359.058 338.635 356.608 343.885C354.388 348.642 351.734 353.609 348.918 358.491C345.534 364.36 341.933 370.08 338.576 375.157C335.485 379.833 332.58 383.996 329.644 387.854C326.704 391.716 323.734 395.269 320.512 398.723C317.408 402.051 314.054 405.304 310.582 408.408C306.868 411.728 303.044 414.86 299.261 417.727C295.587 420.511 291.92 423.072 288.194 425.469C284.486 427.854 280.705 430.084 276.78 432.221C272.852 434.359 268.796 436.398 264.525 438.292C260.241 440.19 255.719 441.958 250.863 443.55C245.862 445.19 240.512 446.646 234.883 447.838C229.594 448.958 224.041 449.853 218.277 450.455C212.362 451.072 206.222 451.384 200.77 451.537C195.203 451.695 190.53 451.696 187.417 451.696H182.141L184.407 549.177L185.895 549.322C187.076 549.436 188.852 549.609 191.372 549.674C193.896 549.741 197.193 549.701 201.451 549.395C205.92 549.073 211.439 548.451 217.627 547.522C223.214 546.683 229.333 545.594 235.693 544.25C242.508 542.81 249.617 541.073 256.802 539.083C263.806 537.144 270.902 534.958 277.891 532.566C284.721 530.227 291.466 527.682 297.756 525.117C304.433 522.396 310.584 519.655 315.771 517.121C320.808 514.661 324.927 512.4 328.635 510.17C332.362 507.929 335.7 505.703 339.15 503.326C342.588 500.958 346.15 498.428 350.052 495.364C353.932 492.318 358.132 488.751 362.846 484.305C367.572 479.848 372.821 474.503 378.329 468.716C384.006 462.753 389.706 456.595 395.405 450.442L396.9 451.826C391.039 458.155 385.174 464.49 379.81 470.126C374.276 475.938 369 481.311 364.247 485.794C359.482 490.289 355.237 493.894 351.316 496.972C347.416 500.034 343.807 502.597 340.309 505.005C336.824 507.407 333.451 509.656 329.684 511.921C325.898 514.199 321.726 516.491 316.668 518.961C311.443 521.513 305.249 524.273 298.524 527.014C292.231 529.579 285.45 532.137 278.546 534.501C271.537 536.901 264.401 539.099 257.347 541.051C250.106 543.057 242.955 544.804 236.109 546.251C229.685 547.609 223.531 548.705 217.93 549.546C211.7 550.482 206.124 551.108 201.595 551.435C197.297 551.744 193.925 551.782 191.325 551.714C188.721 551.646 186.908 551.47 185.703 551.354L182.41 551.034C181.61 517.239 180.815 483.443 180.053 449.648H187.417C190.622 449.648 195.436 449.647 200.715 449.497C206.109 449.345 212.192 449.036 218.068 448.423C223.736 447.83 229.22 446.946 234.459 445.837C240.023 444.658 245.303 443.223 250.23 441.607C255.008 440.04 259.469 438.296 263.702 436.42C267.946 434.537 271.948 432.527 275.803 430.429C279.661 428.328 283.399 426.122 287.09 423.749C290.761 421.387 294.383 418.856 298.028 416.094C301.807 413.231 305.59 410.134 309.222 406.888C312.629 403.841 315.936 400.634 319.017 397.33C322.193 393.924 325.123 390.421 328.02 386.615C330.919 382.804 333.8 378.676 336.872 374.029C340.236 368.941 343.82 363.249 347.151 357.475C349.937 352.644 352.564 347.728 354.761 343.02C357.166 337.865 359.06 332.949 360.619 328.129C362.179 323.303 363.406 318.572 364.476 313.788C365.518 309.136 366.418 304.422 367.154 299.899C367.936 295.103 368.535 290.528 368.928 286.471C369.69 278.617 369.691 272.609 369.691 266.602H371.739Z" fill="url(#paint1_linear_1_3)"/>
</g>
<g filter="url(#filter1_d_1_3)">
<path d="M373.546 266.602C373.546 269.516 373.545 272.432 373.441 275.931C373.342 279.229 373.144 282.782 372.752 286.832C372.549 288.927 372.294 291.152 371.988 293.462C371.685 295.763 371.336 298.131 370.948 300.516C370.56 302.899 370.138 305.284 369.686 307.622C369.256 309.857 368.767 312.2 368.227 314.616C367.671 317.105 367.081 319.546 366.445 321.936C365.799 324.359 365.083 326.809 364.277 329.303C363.467 331.81 362.577 334.321 361.591 336.84C360.608 339.354 359.497 341.951 358.239 344.647C357.143 346.996 355.96 349.361 354.723 351.712C353.406 354.214 351.975 356.792 350.478 359.387C348.862 362.189 347.204 364.946 345.555 367.605C343.709 370.587 341.86 373.46 340.08 376.153C338.527 378.502 337.017 380.727 335.526 382.85C334.042 384.966 332.566 386.991 331.077 388.948C329.582 390.912 328.085 392.789 326.568 394.599C325.042 396.418 323.47 398.194 321.832 399.951C320.294 401.598 318.684 403.242 317.02 404.864C315.353 406.49 313.598 408.125 311.781 409.748C309.925 411.407 308.05 413.014 306.175 414.557C304.179 416.201 302.229 417.742 300.348 419.167C298.565 420.518 296.708 421.867 294.778 423.218C292.867 424.554 290.999 425.808 289.168 426.986C287.283 428.198 285.389 429.366 283.486 430.49C281.617 431.594 279.669 432.698 277.642 433.802C275.635 434.895 273.613 435.954 271.579 436.964C269.498 437.998 267.39 438.994 265.252 439.943C263.127 440.885 260.901 441.811 258.558 442.716C256.235 443.613 253.856 444.466 251.42 445.265C248.832 446.113 246.166 446.911 243.44 447.642C240.794 448.351 238.062 449.01 235.257 449.603C232.594 450.166 229.806 450.682 226.894 451.14C224.112 451.578 221.295 451.951 218.461 452.247C215.463 452.559 212.423 452.795 209.456 452.969C206.537 453.14 203.609 453.259 200.82 453.337C198.05 453.415 195.469 453.455 193.188 453.475C190.148 453.502 188.63 453.503 187.417 453.503H183.984L186.17 547.54C187.326 547.651 189.04 547.813 191.414 547.875C192.65 547.908 194.08 547.914 195.72 547.875C197.312 547.837 199.167 547.751 201.324 547.595C203.577 547.433 206.107 547.193 208.86 546.874C211.478 546.572 214.328 546.192 217.359 545.738C220.317 545.293 223.321 544.799 226.3 544.259C229.178 543.738 232.196 543.147 235.326 542.485C238.756 541.761 242.232 540.967 245.722 540.113C249.205 539.261 252.749 538.336 256.322 537.347C259.831 536.376 263.367 535.341 266.899 534.249C270.326 533.191 273.807 532.058 277.312 530.858C280.727 529.688 284.04 528.498 287.211 527.31C290.474 526.087 293.785 524.787 297.078 523.445C300.487 522.056 303.643 520.715 306.496 519.448C309.412 518.155 312.262 516.826 314.98 515.498C317.467 514.285 319.735 513.115 321.841 511.972C324.006 510.798 325.939 509.691 327.711 508.624C329.486 507.558 331.239 506.447 333.008 505.288C334.839 504.089 336.504 502.962 338.127 501.844C339.775 500.709 341.495 499.505 343.368 498.146C345.153 496.852 347.002 495.466 348.937 493.946C350.883 492.419 352.887 490.779 354.965 488.99C357.061 487.187 359.27 485.201 361.611 482.992C363.98 480.759 366.46 478.322 369.017 475.74C371.565 473.166 374.25 470.388 377.024 467.474C382.805 461.401 388.299 455.469 393.788 449.541L395.308 447.902L399.44 451.728L398.032 453.251C392.124 459.63 386.216 466.01 381.116 471.368C378.37 474.252 375.66 477.055 373.012 479.729C370.376 482.39 367.852 484.873 365.482 487.107C363.089 489.366 360.813 491.409 358.641 493.28C356.504 495.126 354.437 496.817 352.431 498.391C350.469 499.932 348.57 501.353 346.721 502.694C344.963 503.969 343.152 505.235 341.332 506.487C339.491 507.757 337.74 508.946 336.091 510.024C334.382 511.144 332.581 512.281 330.609 513.466C328.703 514.613 326.691 515.769 324.514 516.95C322.278 518.165 319.941 519.372 317.459 520.584C314.825 521.87 311.913 523.224 308.782 524.613C305.634 526.004 302.419 527.376 299.202 528.686C296.085 529.957 292.739 531.266 289.205 532.589C285.826 533.856 282.447 535.072 279.125 536.209C275.688 537.385 272.16 538.532 268.576 539.64C264.992 540.746 261.399 541.799 257.828 542.787C254.216 543.787 250.61 544.728 247.044 545.6C243.434 546.484 239.9 547.292 236.475 548.015C233.385 548.667 230.299 549.272 227.261 549.822C224.007 550.411 220.977 550.914 218.199 551.331C215.16 551.788 212.247 552.175 209.518 552.489C206.683 552.816 204.065 553.066 201.722 553.234C199.606 553.386 197.647 553.475 195.858 553.516C194.124 553.555 192.603 553.547 191.283 553.514C189.879 553.478 188.763 553.416 187.863 553.352C187.06 553.293 186.211 553.212 185.534 553.146L180.649 552.672L179.418 500.376L178.213 447.841L193.274 447.829C195.509 447.812 198.018 447.773 200.666 447.698C203.296 447.623 206.138 447.508 209.106 447.333C212.022 447.161 214.989 446.932 217.885 446.631C220.671 446.34 223.383 445.983 226.018 445.567C228.701 445.144 231.399 444.641 234.085 444.073C236.784 443.501 239.424 442.865 241.991 442.177C244.652 441.463 247.216 440.698 249.673 439.892C252.052 439.113 254.332 438.296 256.521 437.45C258.692 436.611 260.844 435.713 262.975 434.769C265.092 433.83 267.131 432.868 269.101 431.889C271.116 430.888 273.06 429.872 274.942 428.847C276.805 427.834 278.685 426.766 280.592 425.639C282.464 424.532 284.305 423.397 286.116 422.232C287.982 421.032 289.788 419.821 291.539 418.597C293.268 417.387 295.068 416.075 296.942 414.655C298.897 413.174 300.8 411.674 302.619 410.178C304.451 408.671 306.261 407.122 308.022 405.547C309.699 404.049 311.387 402.474 313.066 400.834C314.644 399.295 316.195 397.713 317.697 396.102C319.257 394.43 320.762 392.725 322.24 390.965C323.724 389.197 325.167 387.388 326.587 385.521C328.015 383.645 329.449 381.676 330.907 379.598C332.361 377.525 333.842 375.344 335.369 373.033C337.131 370.368 338.957 367.533 340.773 364.607C342.445 361.915 344.074 359.211 345.591 356.579C346.997 354.141 348.387 351.635 349.725 349.093C350.954 346.758 352.102 344.465 353.131 342.258C354.3 339.753 355.36 337.266 356.328 334.793C357.295 332.322 358.147 329.922 358.904 327.579C359.667 325.221 360.357 322.858 360.988 320.484C361.631 318.077 362.2 315.724 362.719 313.399C363.208 311.215 363.684 308.922 364.138 306.565C364.6 304.162 365.015 301.833 365.377 299.609C365.765 297.224 366.106 294.921 366.394 292.735C366.691 290.484 366.941 288.324 367.136 286.302C367.513 282.416 367.703 278.989 367.797 275.795C367.884 272.804 367.885 269.701 367.885 266.602V264.796H373.546V266.602Z" fill="url(#paint2_linear_1_3)"/>
</g>
<g filter="url(#filter2_d_1_3)">
<path d="M470.596 271.785L392.614 270.417L392.701 271.861C392.778 273.121 392.894 275.015 392.961 277.463C393.029 279.871 393.048 282.767 392.933 285.986C392.82 289.12 392.576 292.567 392.234 296.182C391.872 300 391.397 303.99 390.843 307.981C390.303 311.884 389.682 315.813 388.956 319.63C388.227 323.461 387.39 327.176 386.421 330.626C385.447 334.101 384.336 337.315 383.056 340.552C381.787 343.765 380.33 347.045 378.657 350.664C376.896 354.472 374.878 358.686 372.776 362.876C370.956 366.504 369.087 370.083 367.29 373.316C365.346 376.818 363.483 379.922 361.583 382.863C359.673 385.82 357.713 388.632 355.583 391.538C353.466 394.426 351.162 397.426 348.632 400.529C346.126 403.605 343.395 406.78 340.403 410.045C337.374 413.351 334.1 416.721 330.707 420.022C327.38 423.258 323.916 426.451 320.432 429.476C316.958 432.492 313.467 435.338 310.019 437.981C306.468 440.703 302.946 443.224 299.521 445.508C296.17 447.742 292.891 449.76 289.556 451.681C286.213 453.607 282.87 455.405 279.379 457.208C275.863 459.024 272.167 460.863 268.404 462.603C264.635 464.348 260.795 465.996 256.996 467.43C253.194 468.865 249.421 470.091 245.484 471.114C241.553 472.135 237.466 472.953 233.035 473.575C228.609 474.196 223.843 474.623 219.551 474.923C215.317 475.217 211.459 475.394 208.889 475.511L204.788 475.696L205.231 524.005L207.204 523.808C210.274 523.502 216.417 522.886 224.386 521.431C228.076 520.757 232.188 519.896 236.345 518.958C241.163 517.871 245.996 516.692 250.294 515.587C254.285 514.562 257.87 513.582 261.325 512.542C264.74 511.513 267.961 510.439 271.233 509.222C274.526 507.997 277.903 506.614 281.472 505.061C285.03 503.511 288.801 501.778 292.889 499.85C297.003 497.91 301.399 495.79 305.685 493.638C309.975 491.482 314.235 489.257 318.108 487.087C321.951 484.936 325.361 482.868 328.755 480.598C332.17 478.315 335.584 475.823 339.41 472.839C343.41 469.719 347.881 466.046 352.327 462.194C356.39 458.675 360.432 455.008 364.068 451.481C367.87 447.793 371.227 444.265 374.23 440.871C377.238 437.469 379.903 434.192 382.313 431.017C386.421 425.604 389.818 420.454 393.436 414.97L395.377 412.03C399.776 405.393 404.712 398.143 409.645 390.898L411.333 392.051C406.401 399.295 401.467 406.541 397.081 413.158L395.141 416.094C391.502 421.605 388.087 426.783 383.937 432.25C381.494 435.469 378.796 438.787 375.758 442.223C372.709 445.669 369.317 449.235 365.491 452.946C361.831 456.496 357.759 460.191 353.663 463.738C349.208 467.597 344.707 471.294 340.665 474.446C336.786 477.472 333.335 479.992 329.892 482.294C326.426 484.611 322.973 486.707 319.108 488.871C315.276 491.017 310.975 493.263 306.597 495.463C302.212 497.665 297.817 499.786 293.762 501.698C289.681 503.623 285.896 505.362 282.287 506.933C278.689 508.499 275.28 509.894 271.945 511.135C268.593 512.383 265.333 513.469 261.908 514.502C258.523 515.523 254.899 516.51 250.798 517.564C246.425 518.688 241.565 519.875 236.794 520.951C232.64 521.888 228.505 522.753 224.754 523.438C216.693 524.911 210.499 525.53 207.404 525.84L203.212 526.258L202.729 473.746L208.801 473.47C211.316 473.357 215.093 473.184 219.416 472.883C223.676 472.586 228.396 472.163 232.755 471.551C237.111 470.941 241.12 470.138 244.972 469.137C248.818 468.138 252.525 466.933 256.275 465.517C260.03 464.1 263.823 462.471 267.548 460.747C271.28 459.021 274.949 457.196 278.443 455.391C281.966 453.572 285.295 451.783 288.54 449.913C291.794 448.039 295.031 446.045 298.388 443.807C301.768 441.556 305.254 439.061 308.78 436.357C312.204 433.732 315.663 430.913 319.097 427.932C322.544 424.94 325.978 421.773 329.283 418.557C332.68 415.253 335.928 411.912 338.9 408.669C341.841 405.46 344.547 402.311 347.049 399.241C349.53 396.198 351.814 393.22 353.934 390.329C356.042 387.455 357.978 384.676 359.863 381.759C361.758 378.824 363.601 375.757 365.507 372.325C367.297 369.104 369.15 365.553 370.951 361.965C373.007 357.866 375.019 353.663 376.801 349.808C378.442 346.259 379.878 343.023 381.152 339.801C382.414 336.605 383.504 333.455 384.453 330.073C385.411 326.663 386.233 323.012 386.949 319.253C387.667 315.479 388.282 311.58 388.82 307.7C389.374 303.705 389.846 299.744 390.202 295.99C390.541 292.417 390.781 289.011 390.893 285.915C391.007 282.738 390.988 279.887 390.921 277.518C390.857 275.189 390.739 273.264 390.661 271.982L390.441 268.339C417.17 268.786 443.9 269.276 470.628 269.745L470.596 271.785Z" fill="url(#paint3_linear_1_3)"/>
</g>
<g filter="url(#filter3_d_1_3)">
<path d="M470.567 273.585L394.531 272.25C394.604 273.473 394.699 275.182 394.761 277.414C394.794 278.617 394.816 279.958 394.815 281.42C394.814 282.885 394.789 284.442 394.732 286.05C394.675 287.666 394.587 289.295 394.476 290.924C394.362 292.594 394.209 294.416 394.027 296.351C393.837 298.36 393.629 300.289 393.413 302.136C393.186 304.067 392.922 306.105 392.629 308.228C392.364 310.14 392.071 312.105 391.747 314.12C391.423 316.135 391.083 318.095 390.728 319.962C390.358 321.907 389.961 323.82 389.536 325.673C389.11 327.536 388.65 329.358 388.157 331.112C387.659 332.891 387.127 334.596 386.561 336.257C385.981 337.96 385.374 339.6 384.736 341.216C384.129 342.754 383.432 344.407 382.659 346.176C381.892 347.931 381.109 349.657 380.294 351.419C379.392 353.372 378.407 355.46 377.364 357.625C376.463 359.496 375.469 361.52 374.384 363.681C373.393 365.66 372.432 367.534 371.532 369.248C370.657 370.917 369.761 372.577 368.865 374.191C367.881 375.962 366.919 377.632 365.965 379.224C364.994 380.847 364.043 382.377 363.1 383.837C362.154 385.303 361.172 386.764 360.148 388.243C359.128 389.715 358.096 391.157 357.036 392.603C355.98 394.046 354.862 395.531 353.688 397.053C352.535 398.547 351.317 400.086 350.03 401.665C348.751 403.233 347.428 404.813 346.062 406.395C344.735 407.932 343.293 409.553 341.729 411.259C340.135 412.999 338.542 414.686 336.973 416.302C335.343 417.979 333.666 419.656 331.963 421.313C330.262 422.967 328.537 424.602 326.804 426.195C325.111 427.754 323.372 429.308 321.611 430.838C319.892 432.33 318.148 433.798 316.393 435.232C314.592 436.702 312.829 438.099 311.113 439.414C309.285 440.814 307.513 442.13 305.809 443.352C304.014 444.638 302.247 445.861 300.523 447.011C298.846 448.121 297.169 449.198 295.478 450.243C293.817 451.269 292.147 452.264 290.452 453.24C288.683 454.258 287.001 455.2 285.377 456.078C283.701 456.986 281.98 457.893 280.205 458.809C278.429 459.726 276.612 460.648 274.782 461.55C272.915 462.469 271.033 463.373 269.159 464.24C267.283 465.109 265.364 465.964 263.417 466.791C261.484 467.612 259.549 468.392 257.631 469.117C255.727 469.835 253.805 470.511 251.841 471.141C249.898 471.764 247.935 472.337 245.936 472.857C243.887 473.388 241.844 473.859 239.793 474.266C237.735 474.674 235.571 475.039 233.282 475.36C231.076 475.669 228.745 475.935 226.411 476.161C224.033 476.392 221.764 476.575 219.671 476.722C217.62 476.864 215.567 476.984 213.689 477.082L206.603 477.416L207.012 522.016L207.027 522.015C208.572 521.863 210.889 521.629 213.731 521.265C216.599 520.898 220.089 520.385 224.061 519.659C225.809 519.342 227.683 518.973 229.635 518.569C231.671 518.148 233.796 517.686 235.95 517.2C238.286 516.674 240.597 516.132 242.821 515.594C245.338 514.987 247.699 514.396 249.85 513.844C251.817 513.34 253.7 512.84 255.53 512.337C257.272 511.854 259.017 511.353 260.81 510.813C262.548 510.29 264.192 509.768 265.761 509.244C267.411 508.693 269.019 508.126 270.605 507.535C272.135 506.966 273.789 506.317 275.571 505.592C277.348 504.869 279.071 504.141 280.752 503.41C282.553 502.626 284.374 501.81 286.235 500.96C287.992 500.157 289.958 499.24 292.12 498.22C294.292 497.196 296.533 496.126 298.775 495.038C300.95 493.982 303.017 492.964 304.88 492.029C306.918 491.006 309.038 489.917 311.213 488.773C313.241 487.707 315.26 486.616 317.227 485.513C319.168 484.426 320.967 483.38 322.662 482.349C324.412 481.283 326.094 480.211 327.753 479.102C329.474 477.952 331.164 476.771 332.87 475.528C334.58 474.281 336.377 472.921 338.302 471.42C340.329 469.839 342.472 468.12 344.655 466.321C346.744 464.6 348.929 462.754 351.149 460.832C353.19 459.065 355.257 457.229 357.302 455.364C359.221 453.612 361.075 451.873 362.811 450.19C364.691 448.366 366.466 446.577 368.143 444.823C369.846 443.045 371.42 441.331 372.882 439.678C374.311 438.062 375.719 436.403 377.099 434.717C378.507 432.996 379.76 431.406 380.88 429.93C384.933 424.591 388.311 419.473 391.904 414.027C392.311 413.213 393.329 411.86 393.874 411.035C398.248 404.434 403.186 397.18 408.121 389.933L409.173 388.393L413.824 391.572C413.539 391.994 412.99 392.71 412.782 393.126C407.878 400.329 402.972 407.534 398.585 414.154L396.574 417.195C392.968 422.658 389.573 427.799 385.37 433.336C384.065 435.056 382.76 436.718 381.467 438.298C380.147 439.912 378.698 441.616 377.105 443.416C375.542 445.184 373.914 446.957 372.222 448.727C370.502 450.525 368.68 452.363 366.748 454.237C364.931 455.998 363.035 457.777 361.106 459.539C359.093 461.375 356.985 463.245 354.842 465.1C352.68 466.974 350.457 468.848 348.251 470.666C346.006 472.515 343.823 474.266 341.773 475.865C339.847 477.367 337.998 478.765 336.174 480.094C334.345 481.428 332.6 482.648 330.893 483.79C329.124 484.974 327.371 486.092 325.588 487.178C323.75 488.298 321.902 489.374 319.99 490.445C318.107 491.5 316.054 492.608 313.896 493.741C311.889 494.796 309.698 495.918 307.402 497.072C305.167 498.193 303.087 499.221 301.178 500.147C298.888 501.26 296.656 502.327 294.531 503.328C292.605 504.236 290.642 505.151 288.595 506.086C286.649 506.974 284.789 507.808 283.007 508.583C281.108 509.41 279.336 510.161 277.696 510.828C276.056 511.495 274.358 512.159 272.573 512.821C270.851 513.463 269.178 514.054 267.526 514.607C265.794 515.187 264.104 515.725 262.424 516.23C260.841 516.708 259.067 517.215 257.094 517.756C255.261 518.259 253.317 518.774 251.242 519.307C248.889 519.912 246.47 520.518 244.088 521.094C241.785 521.65 239.458 522.197 237.189 522.708C235.053 523.19 232.9 523.657 230.783 524.094C228.848 524.495 226.934 524.871 225.079 525.209C221.039 525.947 217.433 526.477 214.443 526.861C211.426 527.247 209.116 527.479 207.58 527.632L201.43 528.245L200.914 472.025L213.339 471.448C215.07 471.357 217.07 471.238 219.296 471.083C221.478 470.932 223.721 470.752 225.88 470.542C228.082 470.329 230.324 470.071 232.508 469.766C234.611 469.472 236.672 469.122 238.707 468.719C240.749 468.315 242.679 467.872 244.52 467.394C246.411 466.904 248.269 466.361 250.11 465.769C251.931 465.184 253.769 464.536 255.64 463.831C257.499 463.13 259.363 462.376 261.217 461.589C263.058 460.807 264.926 459.973 266.793 459.109C268.665 458.243 270.502 457.362 272.288 456.483C274.108 455.584 275.891 454.68 277.618 453.789C279.349 452.896 281.052 451.998 282.742 451.084C284.482 450.141 286.12 449.231 287.644 448.353C289.244 447.433 290.851 446.474 292.48 445.466C294.035 444.503 295.667 443.454 297.393 442.304C299.033 441.211 300.744 440.026 302.513 438.759C304.27 437.499 305.999 436.218 307.686 434.924C309.431 433.586 311.156 432.223 312.842 430.847C314.516 429.479 316.212 428.05 317.918 426.57C319.588 425.12 321.281 423.604 322.976 422.045C324.692 420.465 326.383 418.865 328.027 417.266C329.71 415.628 331.358 413.979 332.952 412.341C334.614 410.632 336.162 408.996 337.573 407.455C338.974 405.926 340.379 404.344 341.777 402.724C343.136 401.15 344.428 399.609 345.652 398.105C346.868 396.613 348.052 395.118 349.202 393.627C350.327 392.166 351.422 390.708 352.481 389.264C353.539 387.821 354.544 386.417 355.5 385.037C356.453 383.663 357.398 382.253 358.346 380.785C359.301 379.308 360.227 377.821 361.136 376.303C362.064 374.754 362.992 373.144 363.932 371.45C364.769 369.945 365.646 368.316 366.539 366.616C367.528 364.735 368.465 362.909 369.342 361.16C370.266 359.318 371.252 357.305 372.254 355.222C373.199 353.266 374.181 351.18 375.164 349.053C376.006 347.231 376.777 345.533 377.464 343.963C378.144 342.405 378.809 340.816 379.472 339.137C380.105 337.536 380.685 335.974 381.212 334.428C381.754 332.839 382.256 331.233 382.717 329.586C383.188 327.912 383.627 326.173 384.035 324.392C384.445 322.599 384.826 320.768 385.177 318.921C385.544 316.992 385.876 315.094 386.175 313.234C386.474 311.371 386.762 309.432 387.035 307.454C387.305 305.501 387.564 303.499 387.802 301.473C388.044 299.416 388.249 297.525 388.41 295.821C388.573 294.101 388.717 292.346 388.839 290.572C388.955 288.874 389.041 287.294 389.093 285.851C389.151 284.263 389.175 282.777 389.175 281.414C389.176 280.044 389.155 278.749 389.122 277.567C389.062 275.378 388.945 273.445 388.866 272.146C388.695 270.305 388.637 268.367 388.524 266.508L390.47 266.54C408.429 266.839 426.393 267.16 444.353 267.48L472.456 267.979L472.365 273.616L470.567 273.585Z" fill="url(#paint4_linear_1_3)"/>
</g>
<g filter="url(#filter4_d_1_3)">
<path d="M434.522 356.419L408.036 355.971L407.392 358.432C406.536 361.704 404.818 368.251 399.835 377.986C397.439 382.667 394.291 388.076 390.819 393.613C387.062 399.602 382.955 405.706 379.024 411.186C375.199 416.519 371.503 421.319 367.842 425.733C364.197 430.133 360.572 434.162 356.88 437.972C353.19 441.779 349.45 445.345 345.541 448.782C341.6 452.241 337.496 455.572 333.099 458.888C328.689 462.215 323.937 465.563 319.013 468.811C314.15 472.017 309.17 475.095 304.24 477.922C299.262 480.777 294.288 483.41 289.166 485.883C284.069 488.344 278.821 490.649 273.276 492.858C267.94 494.984 262.336 497.023 256.996 498.819C251.234 500.757 245.793 502.417 241.329 503.613C237.012 504.769 233.544 505.509 230.83 505.998C228.081 506.494 226.184 506.726 224.921 506.877L221.234 507.324V488.597C222.216 488.499 223.566 488.274 224.481 488.274C226.774 488.043 231.351 487.585 236.772 486.44C239.493 485.866 242.418 485.119 245.609 484.185C248.813 483.248 252.306 482.116 256.146 480.772C259.966 479.436 264.169 477.873 268.322 476.252C272.445 474.643 276.47 472.994 279.969 471.473C283.468 469.953 286.496 468.533 289.269 467.122C292.018 465.723 294.484 464.347 296.883 462.9C301.309 460.231 305.513 457.326 310.333 453.996L312.525 452.483C317.806 448.84 323.801 444.705 329.203 440.106C332.017 437.71 334.698 435.162 337.29 432.561C339.853 429.988 342.368 427.318 344.842 424.69C347.341 422.034 349.802 419.418 352.169 416.78C354.606 414.061 357.063 411.201 359.586 408.028C362.173 404.774 364.833 401.192 367.45 397.418C369.982 393.766 372.485 389.923 374.853 386.012C377.269 382.024 379.554 377.952 381.695 373.949C383.82 369.974 385.825 366.023 387.681 362.271C389.53 358.535 391.223 355.017 392.74 351.543C394.256 348.072 395.614 344.613 396.799 340.978C397.909 337.578 398.869 334.022 399.685 330.487C400.609 326.482 401.354 322.495 401.923 318.789C402.995 311.819 403.456 305.846 403.687 302.85C403.764 301.528 403.891 300.189 403.993 298.865L431.574 299.357L438.041 318.297L474.762 317.844L474.786 319.884L436.584 320.355L430.102 301.37L405.885 300.939L405.727 303.002C405.493 306.027 405.028 312.062 403.947 319.092C403.371 322.836 402.618 326.874 401.677 330.944C400.85 334.532 399.872 338.149 398.742 341.611C397.54 345.298 396.159 348.818 394.612 352.358C393.067 355.897 391.366 359.433 389.514 363.174C387.673 366.897 385.666 370.851 383.496 374.909C381.341 378.939 379.038 383.042 376.598 387.069C374.204 391.022 371.68 394.899 369.13 398.577C366.468 402.415 363.781 406.036 361.186 409.3C358.625 412.52 356.144 415.408 353.688 418.144C351.162 420.955 348.764 423.506 346.331 426.091C343.876 428.7 341.377 431.352 338.738 434.001C336.128 436.619 333.411 439.2 330.524 441.659C325.027 446.338 318.996 450.498 313.684 454.162L311.492 455.676C306.612 459.048 302.355 461.989 297.94 464.651C295.485 466.132 292.976 467.533 290.197 468.947C287.441 470.349 284.376 471.784 280.785 473.345C277.214 474.898 273.164 476.557 269.066 478.157C264.954 479.761 260.726 481.331 256.818 482.699C252.952 484.052 249.426 485.195 246.176 486.146C242.912 487.101 239.937 487.861 237.188 488.441C231.684 489.603 227.02 490.07 224.682 490.305L223.282 490.445V505.016L224.682 504.845C225.961 504.692 227.884 504.457 230.47 503.991C233.091 503.518 236.486 502.791 240.801 501.636C245.273 500.438 250.675 498.792 256.349 496.883C261.66 495.096 267.231 493.071 272.524 490.962C277.999 488.78 283.2 486.495 288.277 484.044C293.328 481.605 298.263 478.992 303.224 476.146C308.175 473.306 313.12 470.254 317.893 467.107C322.723 463.921 327.438 460.597 331.866 457.256C336.257 453.944 340.324 450.644 344.191 447.247C348.083 443.822 351.785 440.294 355.415 436.549C359.043 432.806 362.63 428.815 366.265 424.428C369.89 420.058 373.557 415.295 377.359 409.994C381.328 404.462 385.415 398.391 389.09 392.529C392.54 387.024 395.659 381.667 398.018 377.058C402.829 367.661 404.529 361.3 405.38 358.057L406.466 353.904L434.555 354.379L434.522 356.419Z" fill="url(#paint5_linear_1_3)"/>
</g>
<g filter="url(#filter5_d_1_3)">
<path d="M434.493 358.219L409.419 357.794L409.135 358.884C408.695 360.564 408.033 363.091 406.862 366.385C405.687 369.691 403.982 373.831 401.437 378.804C400.251 381.12 398.886 383.607 397.395 386.192C395.851 388.869 394.145 391.69 392.343 394.565C390.48 397.543 388.523 400.552 386.543 403.501C384.466 406.596 382.426 409.541 380.492 412.238C378.618 414.85 376.722 417.401 374.797 419.905C372.895 422.378 371.044 424.699 369.232 426.883C367.45 429.033 365.614 431.16 363.718 433.273C361.842 435.366 359.997 437.346 358.171 439.229C356.308 441.15 354.432 443.012 352.534 444.821C350.597 446.668 348.667 448.437 346.734 450.136C344.745 451.876 342.715 453.59 340.626 455.286C338.491 457.02 336.347 458.698 334.186 460.328C331.979 461.992 329.67 463.675 327.287 465.353C324.988 466.973 322.55 468.633 320.001 470.314C317.537 471.939 315.042 473.531 312.546 475.071C309.978 476.654 307.498 478.135 305.136 479.489C302.678 480.898 300.17 482.281 297.597 483.641C295.07 484.975 292.525 486.263 289.949 487.507C287.404 488.736 284.795 489.937 282.108 491.116C279.483 492.269 276.765 493.405 273.939 494.531C271.206 495.62 268.52 496.645 265.932 497.593C263.128 498.616 260.316 499.602 257.567 500.527C254.746 501.476 251.943 502.376 249.253 503.199C246.482 504.047 243.969 504.774 241.795 505.356C239.685 505.921 237.703 506.403 235.867 506.813C234.095 507.209 232.524 507.523 231.148 507.769C229.688 508.034 228.52 508.217 227.572 508.352C226.506 508.504 225.74 508.597 225.133 508.67L219.427 509.36V486.969L222.039 486.69C222.88 486.584 223.776 486.47 224.449 486.467C226.747 486.236 231.173 485.779 236.405 484.675C237.682 484.407 239.069 484.08 240.569 483.698C242.129 483.3 243.643 482.886 245.108 482.457C246.676 481.999 248.336 481.485 250.089 480.917C251.797 480.363 253.618 479.748 255.553 479.071C257.265 478.473 259.251 477.753 261.433 476.943C263.356 476.235 265.451 475.437 267.666 474.572C269.839 473.724 271.886 472.907 273.737 472.147C275.647 471.364 277.503 470.581 279.249 469.823C281.014 469.056 282.633 468.326 284.129 467.626C285.551 466.961 286.987 466.258 288.451 465.513C289.876 464.788 291.159 464.105 292.332 463.455C293.506 462.803 294.711 462.102 295.951 461.354C298.193 460.003 300.32 458.63 302.459 457.199C304.64 455.74 306.9 454.179 309.309 452.514L311.502 451.001C314.175 449.157 317.029 447.188 319.76 445.199C322.565 443.156 325.381 440.998 328.038 438.737C329.364 437.609 330.721 436.385 332.094 435.098C333.448 433.828 334.753 432.556 336.012 431.291C337.252 430.048 338.521 428.737 339.793 427.405L343.529 423.455L347.234 419.501C348.545 418.091 349.771 416.758 350.828 415.58C351.972 414.304 353.173 412.933 354.469 411.409C355.688 409.976 356.923 408.479 358.175 406.905C359.49 405.252 360.797 403.547 362.084 401.814C363.382 400.06 364.684 398.247 365.968 396.395C367.235 394.569 368.501 392.682 369.749 390.758C370.991 388.846 372.186 386.944 373.315 385.08C374.477 383.163 375.647 381.153 376.81 379.097C377.976 377.037 379.074 375.034 380.108 373.102C381.175 371.106 382.203 369.135 383.187 367.208C384.093 365.436 385.068 363.488 386.065 361.473C386.979 359.627 387.859 357.825 388.704 356.04C389.555 354.243 390.355 352.506 391.089 350.823C391.839 349.106 392.549 347.394 393.214 345.673C393.87 343.972 394.495 342.229 395.084 340.421C395.63 338.746 396.129 337.083 396.577 335.451C397.05 333.731 397.502 331.929 397.927 330.085C398.366 328.182 398.769 326.264 399.13 324.368C399.508 322.391 399.845 320.427 400.138 318.521C400.679 315.005 401.059 311.817 401.328 309.153C401.59 306.571 401.769 304.259 401.887 302.716C401.951 301.679 402.018 300.875 402.085 300.064L402.329 297.036L432.872 297.581L439.327 316.481L476.538 316.023L476.607 321.662L435.297 322.171L428.802 303.147L407.554 302.769L407.525 303.15C407.289 306.207 406.818 312.291 405.732 319.361C405.435 321.296 405.085 323.331 404.684 325.426C404.315 327.356 403.897 329.34 403.435 331.347C403.019 333.153 402.547 335.024 402.022 336.933C401.532 338.723 401.008 340.476 400.457 342.168C399.853 344.02 399.194 345.855 398.486 347.689C397.786 349.502 397.042 351.292 396.263 353.078C395.468 354.9 394.65 356.682 393.808 358.46C392.961 360.247 392.066 362.081 391.13 363.972C390.278 365.695 389.326 367.592 388.23 369.734C387.213 371.721 386.162 373.739 385.083 375.757C383.971 377.836 382.845 379.893 381.721 381.88C380.595 383.868 379.401 385.912 378.136 388.001C376.914 390.018 375.69 391.969 374.479 393.836C373.212 395.79 371.916 397.718 370.611 399.6C369.273 401.529 367.932 403.401 366.604 405.193C365.231 407.047 363.888 408.798 362.597 410.422C361.309 412.042 360.035 413.587 358.774 415.068C357.587 416.463 356.331 417.893 355.029 419.343C353.778 420.741 352.534 422.096 351.295 423.43L347.644 427.326L343.909 431.274C342.664 432.577 341.375 433.907 340.015 435.271C338.739 436.551 337.397 437.861 335.963 439.202C334.581 440.497 333.157 441.777 331.688 443.028C326.1 447.785 320.044 451.963 314.711 455.641L312.515 457.158C310.077 458.841 307.792 460.421 305.543 461.926C303.252 463.46 301.051 464.882 298.872 466.196C297.69 466.909 296.429 467.639 295.064 468.398C293.696 469.158 292.352 469.875 291.015 470.556C289.716 471.216 288.243 471.933 286.566 472.717C284.961 473.466 283.282 474.223 281.504 474.996C279.748 475.759 277.849 476.56 275.866 477.374C273.76 478.239 271.689 479.068 269.722 479.836C267.53 480.691 265.422 481.495 263.463 482.222C261.576 482.922 259.541 483.655 257.41 484.401C255.494 485.071 253.63 485.701 251.816 486.288C250.047 486.861 248.335 487.39 246.677 487.874C244.918 488.389 243.338 488.826 241.933 489.184C240.469 489.558 239.011 489.898 237.554 490.205C232.15 491.346 227.531 491.828 225.088 492.073V502.979L226.839 502.75C227.81 502.613 228.925 502.44 230.152 502.219C231.42 501.992 232.897 501.695 234.605 501.312C236.254 500.943 238.154 500.477 240.335 499.893C242.662 499.269 245.138 498.558 247.666 497.784C250.197 497.011 252.928 496.134 255.777 495.175C258.465 494.271 261.231 493.3 264.002 492.287C266.744 491.28 269.394 490.273 271.86 489.29C274.544 488.22 277.196 487.109 279.83 485.953C282.402 484.824 284.953 483.648 287.493 482.421C290.001 481.211 292.48 479.956 294.944 478.653C297.358 477.377 299.817 476.019 302.328 474.58C304.873 473.119 307.317 471.667 309.635 470.238C312.09 468.725 314.522 467.174 316.904 465.603C319.229 464.07 321.599 462.451 323.989 460.767C326.295 459.142 328.567 457.485 330.779 455.816C333.01 454.133 335.109 452.494 337.089 450.887C339.115 449.241 341.082 447.581 343.001 445.896C344.963 444.162 346.848 442.438 348.659 440.712C350.511 438.947 352.329 437.143 354.124 435.292C355.957 433.401 357.747 431.483 359.497 429.531C361.226 427.6 363.016 425.521 364.875 423.279C366.705 421.073 368.517 418.803 370.32 416.459C372.097 414.147 373.952 411.647 375.892 408.942C377.946 406.078 379.971 403.163 381.893 400.303C383.881 397.342 385.798 394.399 387.566 391.577C389.303 388.804 390.97 386.045 392.509 383.378C393.96 380.864 395.281 378.458 396.416 376.24C398.761 371.661 400.361 367.781 401.483 364.643C402.61 361.485 403.228 359.166 403.636 357.606L405.081 352.082L436.383 352.611L436.292 358.25L434.493 358.219Z" fill="url(#paint6_linear_1_3)"/>
</g>
<g filter="url(#filter6_d_1_3)">
<path d="M370.715 274.234C374.93 274.234 378.346 270.817 378.346 266.602C378.346 262.388 374.93 258.971 370.715 258.971C366.501 258.971 363.084 262.388 363.084 266.602C363.084 270.817 366.501 274.234 370.715 274.234Z" fill="#921115"/>
<path d="M370.715 274.234C374.93 274.234 378.346 270.817 378.346 266.602C378.346 262.388 374.93 258.971 370.715 258.971C366.501 258.971 363.084 262.388 363.084 266.602C363.084 270.817 366.501 274.234 370.715 274.234Z" stroke="#921115" stroke-width="0.755906" stroke-miterlimit="22.9256"/>
</g>
<g filter="url(#filter7_d_1_3)">
<path d="M470.612 278.397C474.827 278.397 478.244 274.98 478.244 270.766C478.244 266.551 474.827 263.134 470.612 263.134C466.398 263.134 462.981 266.551 462.981 270.766C462.981 274.98 466.398 278.397 470.612 278.397Z" fill="#9B1216"/>
<path d="M470.612 278.397C474.827 278.397 478.244 274.98 478.244 270.766C478.244 266.551 474.827 263.134 470.612 263.134C466.398 263.134 462.981 266.551 462.981 270.766C462.981 274.98 466.398 278.397 470.612 278.397Z" stroke="#9B1216" stroke-width="0.755906" stroke-miterlimit="22.9256"/>
</g>
<g filter="url(#filter8_d_1_3)">
<path d="M474.774 326.495C478.989 326.495 482.405 323.079 482.405 318.864C482.405 314.65 478.989 311.233 474.774 311.233C470.559 311.233 467.143 314.65 467.143 318.864C467.143 323.079 470.559 326.495 474.774 326.495Z" fill="#9B1216"/>
<path d="M474.774 326.495C478.989 326.495 482.405 323.079 482.405 318.864C482.405 314.65 478.989 311.233 474.774 311.233C470.559 311.233 467.143 314.65 467.143 318.864C467.143 323.079 470.559 326.495 474.774 326.495Z" stroke="#9B1216" stroke-width="0.755906" stroke-miterlimit="22.9256"/>
</g>
<g filter="url(#filter9_d_1_3)">
<path d="M434.538 363.031C438.753 363.031 442.169 359.614 442.169 355.4C442.169 351.185 438.753 347.769 434.538 347.769C430.324 347.769 426.907 351.185 426.907 355.4C426.907 359.614 430.324 363.031 434.538 363.031Z" fill="#921115"/>
<path d="M434.538 363.031C438.753 363.031 442.169 359.614 442.169 355.4C442.169 351.185 438.753 347.769 434.538 347.769C430.324 347.769 426.907 351.185 426.907 355.4C426.907 359.614 430.324 363.031 434.538 363.031Z" stroke="#921115" stroke-width="0.755906" stroke-miterlimit="22.9256"/>
</g>
<g filter="url(#filter10_d_1_3)">
<path d="M410.489 399.106C414.703 399.106 418.12 395.689 418.12 391.475C418.12 387.26 414.703 383.843 410.489 383.843C406.274 383.843 402.858 387.26 402.858 391.475C402.858 395.689 406.274 399.106 410.489 399.106Z" fill="#5E090E"/>
<path d="M410.489 399.106C414.703 399.106 418.12 395.689 418.12 391.475C418.12 387.26 414.703 383.843 410.489 383.843C406.274 383.843 402.858 387.26 402.858 391.475C402.858 395.689 406.274 399.106 410.489 399.106Z" stroke="#5E090E" stroke-width="0.755906" stroke-miterlimit="22.9256"/>
</g>
<g filter="url(#filter11_d_1_3)">
<path d="M396.152 458.765C400.367 458.765 403.783 455.349 403.783 451.134C403.783 446.919 400.367 443.503 396.152 443.503C391.938 443.503 388.521 446.919 388.521 451.134C388.521 455.349 391.938 458.765 396.152 458.765Z" fill="#4B060B"/>
<path d="M396.152 458.765C400.367 458.765 403.783 455.349 403.783 451.134C403.783 446.919 400.367 443.503 396.152 443.503C391.938 443.503 388.521 446.919 388.521 451.134C388.521 455.349 391.938 458.765 396.152 458.765Z" stroke="#4B060B" stroke-width="0.755906" stroke-miterlimit="22.9256"/>
</g>
<g filter="url(#filter12_d_1_3)">
<path fill-rule="evenodd" clip-rule="evenodd" d="M297.583 311.211C295.794 308.966 294.005 308.538 291.992 308.752C289.979 308.966 287.743 309.821 284.947 310.677C282.151 311.531 278.796 312.387 274.883 312.707C270.969 313.028 266.495 312.814 263.029 312.921C259.562 313.028 257.102 313.455 256.431 315.165C255.76 316.876 256.878 319.869 259.673 323.076C262.469 326.282 266.942 329.703 270.745 332.375C274.547 335.047 277.678 336.972 278.796 340.178C279.915 343.385 279.02 347.874 278.573 350.119C278.126 352.364 278.125 352.364 279.579 351.401C281.033 350.44 283.94 348.516 288.078 344.668C292.216 340.82 297.583 335.047 300.267 330.879C302.951 326.71 302.951 324.145 302.057 320.831C301.162 317.517 299.373 313.455 297.583 311.211Z" fill="url(#paint7_linear_1_3)"/>
</g>
<g filter="url(#filter13_d_1_3)">
<path fill-rule="evenodd" clip-rule="evenodd" d="M314.889 272.054C313.756 271.844 312.344 272.097 311.744 274.402C311.144 276.707 311.356 281.064 309.938 284.563C308.519 288.062 305.471 290.703 303.861 293.139C302.251 295.575 302.079 297.807 303.274 298.616C304.469 299.426 307.032 298.814 309.438 297.128C311.844 295.442 314.094 292.683 315.624 290.049C317.155 287.415 317.967 284.908 318.199 282.189C318.431 279.47 318.083 276.539 317.481 274.738C316.879 272.937 316.023 272.264 314.889 272.054Z" fill="url(#paint8_linear_1_3)"/>
</g>
<g filter="url(#filter14_d_1_3)">
<path d="M404.614 122.423C401.464 116.961 398.311 111.495 394.628 105.574C391.055 99.8256 387.119 93.893 382.465 87.597C377.804 81.2875 372.396 74.5755 366.046 67.9969C359.731 61.4527 352.471 55.0349 344.072 49.2764C336.144 43.8394 327.183 38.978 317.741 34.6871C307.073 29.8391 295.81 25.722 284.728 22.3243C274.255 19.1117 263.897 16.5289 254.156 14.453C244.439 12.3823 235.335 10.8186 227.338 9.63671C219.264 8.44267 212.409 7.64376 206.873 7.09494C201.455 6.55827 197.017 6.23676 194.059 6.02379L191.1 5.80973L189.602 94.8914L190.224 94.8801C191.957 94.8484 194.561 94.8003 197.895 94.9027C201.3 95.0071 205.426 95.2622 210.098 95.8287C215.068 96.4298 220.765 97.3943 226.768 98.741C232.111 99.9402 237.643 101.43 243.045 103.221C248.822 105.133 254.517 107.404 259.889 109.78C265.257 112.154 270.289 114.625 274.761 116.95C279.235 119.274 283.187 121.474 286.963 123.817C290.745 126.166 294.3 128.63 297.96 131.473C301.489 134.215 305.158 137.341 308.757 140.63C312.528 144.074 316.224 147.7 319.602 151.244C322.891 154.695 325.849 158.036 328.585 161.313C331.339 164.624 333.878 167.873 336.31 171.115C338.763 174.386 341.111 177.656 343.404 181.178C345.705 184.712 347.971 188.532 350.257 192.904C352.508 197.207 354.755 201.991 356.773 206.694C358.859 211.557 360.735 216.407 362.149 220.613C363.551 224.784 364.488 228.283 365.131 231.088C365.779 233.921 366.135 236.053 366.371 237.47L366.442 237.9L408.604 236.247L415.762 250.984H511.369V256.404H412.383L405.284 241.784L361.89 243.487L361.035 238.359C360.809 237 360.468 234.958 359.858 232.294C359.242 229.6 358.349 226.261 357.027 222.328C355.674 218.302 353.849 213.593 351.798 208.812C349.805 204.169 347.622 199.513 345.472 195.403C343.29 191.228 341.105 187.55 338.874 184.121C336.633 180.679 334.358 177.509 331.99 174.353C329.603 171.169 327.117 167.99 324.44 164.781C321.738 161.553 318.853 158.293 315.685 154.97C312.422 151.544 308.819 148.012 305.116 144.63C301.656 141.469 298.098 138.439 294.636 135.75C291.098 133.001 287.694 130.64 284.105 128.411C280.507 126.178 276.663 124.041 272.262 121.755C267.859 119.466 262.927 117.043 257.708 114.734C252.495 112.429 246.967 110.224 241.352 108.366C236.034 106.603 230.685 105.158 225.582 104.013C219.834 102.723 214.319 101.793 209.463 101.205C204.856 100.646 200.928 100.399 197.748 100.302C194.501 100.202 191.983 100.249 190.308 100.279L184.11 100.393L185.797 0L194.44 0.624587C197.281 0.828441 201.551 1.13867 207.401 1.71832C213.133 2.28668 220.12 3.09776 228.12 4.28072C236.197 5.47366 245.41 7.05803 255.278 9.1604C265.121 11.2578 275.626 13.8794 286.315 17.1587C297.629 20.6272 309.111 24.8231 319.963 29.7551C329.68 34.171 338.92 39.1859 347.12 44.8092C355.845 50.7919 363.385 57.4568 369.942 64.2506C376.468 71.0127 382.021 77.9038 386.805 84.3792C391.6 90.8658 395.609 96.9048 399.223 102.717C402.728 108.354 406.011 114.044 409.292 119.734L404.614 122.423Z" fill="url(#paint9_linear_1_3)"/>
</g>
<g filter="url(#filter15_d_1_3)">
<path d="M350.699 86.1958L350.639 86.1478C342.275 80.3042 333.906 74.4578 324.681 68.688C320.08 65.8093 315.334 62.991 310.431 60.3253C305.53 57.6615 300.357 55.085 294.849 52.662C289.713 50.4029 284.343 48.3055 278.926 46.3759C272.728 44.1681 266.482 42.1784 260.452 40.4086C254.722 38.7281 249.189 37.2411 243.937 35.9703C238.638 34.6881 233.605 33.6158 228.924 32.7739C219.561 31.0904 211.458 30.2958 207.397 29.8994C207.045 29.8994 206.614 29.8247 206.255 29.7867V70.8141L207.22 70.8714C210.737 71.0824 217.746 71.5042 224.864 72.4299C228.488 72.901 232.066 73.4909 235.737 74.2867C239.421 75.0865 243.325 76.1229 247.625 77.4941C251.96 78.8757 256.569 80.5571 261.336 82.5019C266.03 84.4171 270.988 86.6291 276.103 89.1042C281.505 91.7179 287.02 94.5944 292.432 97.6913C297.395 100.53 302.345 103.594 307.138 106.86C312.103 110.243 316.893 113.848 321.6 117.712C326.291 121.566 330.856 125.644 335.39 129.986C340.027 134.427 344.644 139.148 349.003 143.925C353.207 148.532 357.214 153.243 360.818 157.862C364.372 162.417 367.493 166.831 370.22 171.086C373.131 175.627 375.634 180.049 377.774 184.323C379.852 188.47 381.553 192.403 382.899 195.76C384.304 199.269 385.283 202.003 385.932 203.824L386.616 205.737L469.421 205.282L469.442 210.681C440.561 210.839 411.681 210.988 382.8 211.158L380.83 205.645C380.155 203.755 379.14 200.918 377.881 197.771C376.558 194.473 374.911 190.656 372.946 186.736C370.919 182.687 368.51 178.439 365.669 174.007C363.002 169.844 359.976 165.562 356.562 161.186C353.092 156.74 349.169 152.133 345.003 147.567C340.696 142.846 336.166 138.212 331.644 133.882C327.176 129.602 322.713 125.613 318.171 121.883C313.641 118.163 308.979 114.657 304.091 111.327C299.477 108.184 294.644 105.195 289.743 102.392C284.358 99.3104 278.967 96.4942 273.754 93.9728C268.816 91.5837 263.964 89.4208 259.304 87.5201C254.529 85.5723 250.057 83.9337 245.995 82.6391C241.981 81.3591 238.227 80.3678 234.594 79.5791C230.946 78.7876 227.535 78.2212 224.176 77.7859C217.337 76.8982 210.388 76.4803 206.902 76.2704C204.885 76.1742 202.854 76.0276 200.836 75.9067V23.8307C203.192 24.061 205.645 24.231 207.979 24.523C212.127 24.9357 220.325 25.7435 229.877 27.4609C234.701 28.3285 239.84 29.4222 245.207 30.7207C250.6 32.0254 256.22 33.5338 261.976 35.2226C268.148 37.0343 274.495 39.0548 280.726 41.2739C286.295 43.2576 291.795 45.4042 297.03 47.7074C302.574 50.1458 307.892 52.7992 313.014 55.5837C318.132 58.367 322.949 61.2234 327.538 64.0938C336.661 69.8002 345.185 75.7543 353.705 81.7062L353.747 81.7288L350.699 86.1958Z" fill="url(#paint10_linear_1_3)"/>
</g>
<g filter="url(#filter16_d_1_3)">
<path d="M411.152 162.42L393.947 165.271L391.309 160.714C390.442 159.216 389.14 156.967 387.644 154.471C386.101 151.894 384.279 148.928 382.333 145.925C380.389 142.926 378.312 139.877 375.977 136.714C373.642 133.551 371.04 130.266 368.049 126.794C365.053 123.315 361.66 119.643 357.737 115.772C353.824 111.911 349.357 107.829 344.195 103.518C338.761 98.9776 332.642 94.2431 326.197 89.6839C320.269 85.4892 313.992 81.3847 307.628 77.6407C301.007 73.7429 294.308 70.2496 287.448 67.1712C280.602 64.0991 273.59 61.4353 266.33 59.1936C259.077 56.954 251.531 55.1228 244.823 53.6758C237.921 52.1868 232.156 51.1432 228.314 50.45L223.572 49.5918L223.462 56.4542L225.528 56.8168C227.64 57.1874 230.814 57.7455 235.154 58.7051C239.321 59.6247 244.331 60.8812 249.909 62.6069C255.405 64.3068 261.444 66.4554 267.497 68.8189C273.825 71.2891 280.207 74.0082 286.037 76.7067C291.793 79.3703 297.001 82.0093 302.046 84.8932C307.091 87.776 312.02 90.9355 317.226 94.6437C322.303 98.2607 327.583 102.358 332.621 106.531C337.881 110.891 342.949 115.393 347.309 119.571C351.558 123.644 355.111 127.392 358.355 131.144C361.593 134.888 364.518 138.626 367.525 142.696C370.363 146.535 373.249 150.627 375.91 154.528C378.873 158.872 381.663 163.137 383.857 166.642C385.914 169.923 387.345 172.376 388.362 174.21C389.486 176.237 390.095 177.452 390.496 178.257L390.586 178.456L437.58 178.861L437.537 184.26L387.236 183.826L385.659 180.67C385.214 179.799 384.56 178.492 383.641 176.835C382.614 174.984 381.212 172.575 379.284 169.499C377.252 166.255 374.511 162.073 371.443 157.576C368.771 153.66 365.923 149.618 363.185 145.914C360.253 141.946 357.408 138.309 354.269 134.68C351.139 131.059 347.698 127.429 343.562 123.467C339.354 119.433 334.389 115.026 329.17 110.701C324.172 106.561 318.997 102.54 314.092 99.0473C309.095 95.4875 304.307 92.4234 299.356 89.5938C294.408 86.7642 289.339 84.1948 283.772 81.6181C278.041 78.9658 271.761 76.2899 265.529 73.8576C259.547 71.5216 253.635 69.4162 248.322 67.7723C242.855 66.0807 238.003 64.863 233.991 63.9771C230.153 63.1293 226.817 62.5425 224.596 62.1521L217.989 60.992L218.274 43.1481L229.267 45.137C233.292 45.864 239.332 46.9567 245.945 48.3832C252.753 49.8519 260.443 51.7198 267.917 54.0282C275.383 56.3333 282.598 59.0748 289.65 62.2392C296.687 65.3975 303.563 68.9829 310.358 72.9831C316.811 76.7803 323.221 80.974 329.308 85.2803C336.006 90.0189 342.237 94.8321 347.667 99.3677C352.904 103.743 357.48 107.927 361.526 111.919C365.563 115.902 369.053 119.68 372.135 123.259C375.224 126.843 377.908 130.234 380.317 133.497C382.729 136.763 384.866 139.9 386.863 142.982C388.857 146.057 390.713 149.078 392.281 151.698C393.899 154.397 395.153 156.563 395.987 158.004L396.753 159.327L410.284 157.085L411.152 162.42Z" fill="url(#paint11_linear_1_3)"/>
</g>
<g filter="url(#filter17_d_1_3)">
<path d="M406.953 128.71C411.168 128.71 414.585 125.293 414.585 121.079C414.585 116.864 411.168 113.448 406.953 113.448C402.739 113.448 399.322 116.864 399.322 121.079C399.322 125.293 402.739 128.71 406.953 128.71Z" fill="#770D11"/>
<path d="M406.953 128.71C411.168 128.71 414.585 125.293 414.585 121.079C414.585 116.864 411.168 113.448 406.953 113.448C402.739 113.448 399.322 116.864 399.322 121.079C399.322 125.293 402.739 128.71 406.953 128.71Z" stroke="#770D11" stroke-width="0.755906" stroke-miterlimit="22.9256"/>
</g>
<g filter="url(#filter18_d_1_3)">
<path d="M352.223 91.5937C356.438 91.5937 359.854 88.1771 359.854 83.9626C359.854 79.748 356.438 76.3314 352.223 76.3314C348.008 76.3314 344.592 79.748 344.592 83.9626C344.592 88.1771 348.008 91.5937 352.223 91.5937Z" fill="#5E090E"/>
<path d="M352.223 91.5937C356.438 91.5937 359.854 88.1771 359.854 83.9626C359.854 79.748 356.438 76.3314 352.223 76.3314C348.008 76.3314 344.592 79.748 344.592 83.9626C344.592 88.1771 348.008 91.5937 352.223 91.5937Z" stroke="#5E090E" stroke-width="0.755906" stroke-miterlimit="22.9256"/>
</g>
<g filter="url(#filter19_d_1_3)">
<path d="M410.718 167.384C414.933 167.384 418.349 163.967 418.349 159.753C418.349 155.538 414.933 152.122 410.718 152.122C406.504 152.122 403.087 155.538 403.087 159.753C403.087 163.967 406.504 167.384 410.718 167.384Z" fill="#9B1216"/>
<path d="M410.718 167.384C414.933 167.384 418.349 163.967 418.349 159.753C418.349 155.538 414.933 152.122 410.718 152.122C406.504 152.122 403.087 155.538 403.087 159.753C403.087 163.967 406.504 167.384 410.718 167.384Z" stroke="#9B1216" stroke-width="0.755906" stroke-miterlimit="22.9256"/>
</g>
<g filter="url(#filter20_d_1_3)">
<path d="M469.431 215.613C473.646 215.613 477.063 212.196 477.063 207.981C477.063 203.767 473.646 200.35 469.431 200.35C465.217 200.35 461.8 203.767 461.8 207.981C461.8 212.196 465.217 215.613 469.431 215.613Z" fill="#B7161A"/>
<path d="M469.431 215.613C473.646 215.613 477.063 212.196 477.063 207.981C477.063 203.767 473.646 200.35 469.431 200.35C465.217 200.35 461.8 203.767 461.8 207.981C461.8 212.196 465.217 215.613 469.431 215.613Z" stroke="#B7161A" stroke-width="0.755906" stroke-miterlimit="22.9256"/>
</g>
<g filter="url(#filter21_d_1_3)">
<path d="M511.369 261.325C515.583 261.325 519 257.909 519 253.694C519 249.479 515.583 246.063 511.369 246.063C507.154 246.063 503.738 249.479 503.738 253.694C503.738 257.909 507.154 261.325 511.369 261.325Z" fill="#B7161A"/>
<path d="M511.369 261.325C515.583 261.325 519 257.909 519 253.694C519 249.479 515.583 246.063 511.369 246.063C507.154 246.063 503.738 249.479 503.738 253.694C503.738 257.909 507.154 261.325 511.369 261.325Z" stroke="#B7161A" stroke-width="0.755906" stroke-miterlimit="22.9256"/>
</g>
<g filter="url(#filter22_d_1_3)">
<path d="M437.558 189.192C441.773 189.192 445.19 185.775 445.19 181.561C445.19 177.346 441.773 173.93 437.558 173.93C433.344 173.93 429.927 177.346 429.927 181.561C429.927 185.775 433.344 189.192 437.558 189.192Z" fill="#B7161A"/>
<path d="M437.558 189.192C441.773 189.192 445.19 185.775 445.19 181.561C445.19 177.346 441.773 173.93 437.558 173.93C433.344 173.93 429.927 177.346 429.927 181.561C429.927 185.775 433.344 189.192 437.558 189.192Z" stroke="#B7161A" stroke-width="0.755906" stroke-miterlimit="22.9256"/>
</g>
<defs>
<filter id="filter0_d_1_3" x="176.053" y="266.602" width="224.847" height="293.14" filterUnits="userSpaceOnUse" color-interpolation-filters="sRGB">
<feFlood flood-opacity="0" result="BackgroundImageFix"/>
<feColorMatrix in="SourceAlpha" type="matrix" values="0 0 0 0 0 0 0 0 0 0 0 0 0 0 0 0 0 0 127 0" result="hardAlpha"/>
<feOffset dy="4"/>
<feGaussianBlur stdDeviation="2"/>
<feComposite in2="hardAlpha" operator="out"/>
<feColorMatrix type="matrix" values="0 0 0 0 0 0 0 0 0 0 0 0 0 0 0 0 0 0 0.25 0"/>
<feBlend mode="normal" in2="BackgroundImageFix" result="effect1_dropShadow_1_3"/>
<feBlend mode="normal" in="SourceGraphic" in2="effect1_dropShadow_1_3" result="shape"/>
</filter>
<filter id="filter1_d_1_3" x="174.213" y="264.796" width="229.227" height="296.746" filterUnits="userSpaceOnUse" color-interpolation-filters="sRGB">
<feFlood flood-opacity="0" result="BackgroundImageFix"/>
<feColorMatrix in="SourceAlpha" type="matrix" values="0 0 0 0 0 0 0 0 0 0 0 0 0 0 0 0 0 0 127 0" result="hardAlpha"/>
<feOffset dy="4"/>
<feGaussianBlur stdDeviation="2"/>
<feComposite in2="hardAlpha" operator="out"/>
<feColorMatrix type="matrix" values="0 0 0 0 0 0 0 0 0 0 0 0 0 0 0 0 0 0 0.25 0"/>
<feBlend mode="normal" in2="BackgroundImageFix" result="effect1_dropShadow_1_3"/>
<feBlend mode="normal" in="SourceGraphic" in2="effect1_dropShadow_1_3" result="shape"/>
</filter>
<filter id="filter2_d_1_3" x="198.729" y="268.339" width="275.899" height="265.919" filterUnits="userSpaceOnUse" color-interpolation-filters="sRGB">
<feFlood flood-opacity="0" result="BackgroundImageFix"/>
<feColorMatrix in="SourceAlpha" type="matrix" values="0 0 0 0 0 0 0 0 0 0 0 0 0 0 0 0 0 0 127 0" result="hardAlpha"/>
<feOffset dy="4"/>
<feGaussianBlur stdDeviation="2"/>
<feComposite in2="hardAlpha" operator="out"/>
<feColorMatrix type="matrix" values="0 0 0 0 0 0 0 0 0 0 0 0 0 0 0 0 0 0 0.25 0"/>
<feBlend mode="normal" in2="BackgroundImageFix" result="effect1_dropShadow_1_3"/>
<feBlend mode="normal" in="SourceGraphic" in2="effect1_dropShadow_1_3" result="shape"/>
</filter>
<filter id="filter3_d_1_3" x="196.914" y="266.508" width="279.543" height="269.737" filterUnits="userSpaceOnUse" color-interpolation-filters="sRGB">
<feFlood flood-opacity="0" result="BackgroundImageFix"/>
<feColorMatrix in="SourceAlpha" type="matrix" values="0 0 0 0 0 0 0 0 0 0 0 0 0 0 0 0 0 0 127 0" result="hardAlpha"/>
<feOffset dy="4"/>
<feGaussianBlur stdDeviation="2"/>
<feComposite in2="hardAlpha" operator="out"/>
<feColorMatrix type="matrix" values="0 0 0 0 0 0 0 0 0 0 0 0 0 0 0 0 0 0 0.25 0"/>
<feBlend mode="normal" in2="BackgroundImageFix" result="effect1_dropShadow_1_3"/>
<feBlend mode="normal" in="SourceGraphic" in2="effect1_dropShadow_1_3" result="shape"/>
</filter>
<filter id="filter4_d_1_3" x="217.234" y="298.865" width="261.553" height="216.458" filterUnits="userSpaceOnUse" color-interpolation-filters="sRGB">
<feFlood flood-opacity="0" result="BackgroundImageFix"/>
<feColorMatrix in="SourceAlpha" type="matrix" values="0 0 0 0 0 0 0 0 0 0 0 0 0 0 0 0 0 0 127 0" result="hardAlpha"/>
<feOffset dy="4"/>
<feGaussianBlur stdDeviation="2"/>
<feComposite in2="hardAlpha" operator="out"/>
<feColorMatrix type="matrix" values="0 0 0 0 0 0 0 0 0 0 0 0 0 0 0 0 0 0 0.25 0"/>
<feBlend mode="normal" in2="BackgroundImageFix" result="effect1_dropShadow_1_3"/>
<feBlend mode="normal" in="SourceGraphic" in2="effect1_dropShadow_1_3" result="shape"/>
</filter>
<filter id="filter5_d_1_3" x="215.427" y="297.036" width="265.18" height="220.323" filterUnits="userSpaceOnUse" color-interpolation-filters="sRGB">
<feFlood flood-opacity="0" result="BackgroundImageFix"/>
<feColorMatrix in="SourceAlpha" type="matrix" values="0 0 0 0 0 0 0 0 0 0 0 0 0 0 0 0 0 0 127 0" result="hardAlpha"/>
<feOffset dy="4"/>
<feGaussianBlur stdDeviation="2"/>
<feComposite in2="hardAlpha" operator="out"/>
<feColorMatrix type="matrix" values="0 0 0 0 0 0 0 0 0 0 0 0 0 0 0 0 0 0 0.25 0"/>
<feBlend mode="normal" in2="BackgroundImageFix" result="effect1_dropShadow_1_3"/>
<feBlend mode="normal" in="SourceGraphic" in2="effect1_dropShadow_1_3" result="shape"/>
</filter>
<filter id="filter6_d_1_3" x="358.706" y="258.593" width="24.0182" height="24.0182" filterUnits="userSpaceOnUse" color-interpolation-filters="sRGB">
<feFlood flood-opacity="0" result="BackgroundImageFix"/>
<feColorMatrix in="SourceAlpha" type="matrix" values="0 0 0 0 0 0 0 0 0 0 0 0 0 0 0 0 0 0 127 0" result="hardAlpha"/>
<feOffset dy="4"/>
<feGaussianBlur stdDeviation="2"/>
<feComposite in2="hardAlpha" operator="out"/>
<feColorMatrix type="matrix" values="0 0 0 0 0 0 0 0 0 0 0 0 0 0 0 0 0 0 0.25 0"/>
<feBlend mode="normal" in2="BackgroundImageFix" result="effect1_dropShadow_1_3"/>
<feBlend mode="normal" in="SourceGraphic" in2="effect1_dropShadow_1_3" result="shape"/>
</filter>
<filter id="filter7_d_1_3" x="458.603" y="262.756" width="24.0182" height="24.0182" filterUnits="userSpaceOnUse" color-interpolation-filters="sRGB">
<feFlood flood-opacity="0" result="BackgroundImageFix"/>
<feColorMatrix in="SourceAlpha" type="matrix" values="0 0 0 0 0 0 0 0 0 0 0 0 0 0 0 0 0 0 127 0" result="hardAlpha"/>
<feOffset dy="4"/>
<feGaussianBlur stdDeviation="2"/>
<feComposite in2="hardAlpha" operator="out"/>
<feColorMatrix type="matrix" values="0 0 0 0 0 0 0 0 0 0 0 0 0 0 0 0 0 0 0.25 0"/>
<feBlend mode="normal" in2="BackgroundImageFix" result="effect1_dropShadow_1_3"/>
<feBlend mode="normal" in="SourceGraphic" in2="effect1_dropShadow_1_3" result="shape"/>
</filter>
<filter id="filter8_d_1_3" x="462.765" y="310.855" width="24.0182" height="24.0183" filterUnits="userSpaceOnUse" color-interpolation-filters="sRGB">
<feFlood flood-opacity="0" result="BackgroundImageFix"/>
<feColorMatrix in="SourceAlpha" type="matrix" values="0 0 0 0 0 0 0 0 0 0 0 0 0 0 0 0 0 0 127 0" result="hardAlpha"/>
<feOffset dy="4"/>
<feGaussianBlur stdDeviation="2"/>
<feComposite in2="hardAlpha" operator="out"/>
<feColorMatrix type="matrix" values="0 0 0 0 0 0 0 0 0 0 0 0 0 0 0 0 0 0 0.25 0"/>
<feBlend mode="normal" in2="BackgroundImageFix" result="effect1_dropShadow_1_3"/>
<feBlend mode="normal" in="SourceGraphic" in2="effect1_dropShadow_1_3" result="shape"/>
</filter>
<filter id="filter9_d_1_3" x="422.529" y="347.391" width="24.0182" height="24.0183" filterUnits="userSpaceOnUse" color-interpolation-filters="sRGB">
<feFlood flood-opacity="0" result="BackgroundImageFix"/>
<feColorMatrix in="SourceAlpha" type="matrix" values="0 0 0 0 0 0 0 0 0 0 0 0 0 0 0 0 0 0 127 0" result="hardAlpha"/>
<feOffset dy="4"/>
<feGaussianBlur stdDeviation="2"/>
<feComposite in2="hardAlpha" operator="out"/>
<feColorMatrix type="matrix" values="0 0 0 0 0 0 0 0 0 0 0 0 0 0 0 0 0 0 0.25 0"/>
<feBlend mode="normal" in2="BackgroundImageFix" result="effect1_dropShadow_1_3"/>
<feBlend mode="normal" in="SourceGraphic" in2="effect1_dropShadow_1_3" result="shape"/>
</filter>
<filter id="filter10_d_1_3" x="398.48" y="383.465" width="24.0182" height="24.0182" filterUnits="userSpaceOnUse" color-interpolation-filters="sRGB">
<feFlood flood-opacity="0" result="BackgroundImageFix"/>
<feColorMatrix in="SourceAlpha" type="matrix" values="0 0 0 0 0 0 0 0 0 0 0 0 0 0 0 0 0 0 127 0" result="hardAlpha"/>
<feOffset dy="4"/>
<feGaussianBlur stdDeviation="2"/>
<feComposite in2="hardAlpha" operator="out"/>
<feColorMatrix type="matrix" values="0 0 0 0 0 0 0 0 0 0 0 0 0 0 0 0 0 0 0.25 0"/>
<feBlend mode="normal" in2="BackgroundImageFix" result="effect1_dropShadow_1_3"/>
<feBlend mode="normal" in="SourceGraphic" in2="effect1_dropShadow_1_3" result="shape"/>
</filter>
<filter id="filter11_d_1_3" x="384.143" y="443.125" width="24.0182" height="24.0183" filterUnits="userSpaceOnUse" color-interpolation-filters="sRGB">
<feFlood flood-opacity="0" result="BackgroundImageFix"/>
<feColorMatrix in="SourceAlpha" type="matrix" values="0 0 0 0 0 0 0 0 0 0 0 0 0 0 0 0 0 0 127 0" result="hardAlpha"/>
<feOffset dy="4"/>
<feGaussianBlur stdDeviation="2"/>
<feComposite in2="hardAlpha" operator="out"/>
<feColorMatrix type="matrix" values="0 0 0 0 0 0 0 0 0 0 0 0 0 0 0 0 0 0 0.25 0"/>
<feBlend mode="normal" in2="BackgroundImageFix" result="effect1_dropShadow_1_3"/>
<feBlend mode="normal" in="SourceGraphic" in2="effect1_dropShadow_1_3" result="shape"/>
</filter>
<filter id="filter12_d_1_3" x="252.241" y="308.703" width="54.35" height="51.3092" filterUnits="userSpaceOnUse" color-interpolation-filters="sRGB">
<feFlood flood-opacity="0" result="BackgroundImageFix"/>
<feColorMatrix in="SourceAlpha" type="matrix" values="0 0 0 0 0 0 0 0 0 0 0 0 0 0 0 0 0 0 127 0" result="hardAlpha"/>
<feOffset dy="4"/>
<feGaussianBlur stdDeviation="2"/>
<feComposite in2="hardAlpha" operator="out"/>
<feColorMatrix type="matrix" values="0 0 0 0 0 0 0 0 0 0 0 0 0 0 0 0 0 0 0.25 0"/>
<feBlend mode="normal" in2="BackgroundImageFix" result="effect1_dropShadow_1_3"/>
<feBlend mode="normal" in="SourceGraphic" in2="effect1_dropShadow_1_3" result="shape"/>
</filter>
<filter id="filter13_d_1_3" x="298.496" y="271.995" width="23.7751" height="34.9753" filterUnits="userSpaceOnUse" color-interpolation-filters="sRGB">
<feFlood flood-opacity="0" result="BackgroundImageFix"/>
<feColorMatrix in="SourceAlpha" type="matrix" values="0 0 0 0 0 0 0 0 0 0 0 0 0 0 0 0 0 0 127 0" result="hardAlpha"/>
<feOffset dy="4"/>
<feGaussianBlur stdDeviation="2"/>
<feComposite in2="hardAlpha" operator="out"/>
<feColorMatrix type="matrix" values="0 0 0 0 0 0 0 0 0 0 0 0 0 0 0 0 0 0 0.25 0"/>
<feBlend mode="normal" in2="BackgroundImageFix" result="effect1_dropShadow_1_3"/>
<feBlend mode="normal" in="SourceGraphic" in2="effect1_dropShadow_1_3" result="shape"/>
</filter>
<filter id="filter14_d_1_3" x="180.11" y="0" width="335.258" height="264.404" filterUnits="userSpaceOnUse" color-interpolation-filters="sRGB">
<feFlood flood-opacity="0" result="BackgroundImageFix"/>
<feColorMatrix in="SourceAlpha" type="matrix" values="0 0 0 0 0 0 0 0 0 0 0 0 0 0 0 0 0 0 127 0" result="hardAlpha"/>
<feOffset dy="4"/>
<feGaussianBlur stdDeviation="2"/>
<feComposite in2="hardAlpha" operator="out"/>
<feColorMatrix type="matrix" values="0 0 0 0 0 0 0 0 0 0 0 0 0 0 0 0 0 0 0.25 0"/>
<feBlend mode="normal" in2="BackgroundImageFix" result="effect1_dropShadow_1_3"/>
<feBlend mode="normal" in="SourceGraphic" in2="effect1_dropShadow_1_3" result="shape"/>
</filter>
<filter id="filter15_d_1_3" x="196.836" y="23.8307" width="276.606" height="195.327" filterUnits="userSpaceOnUse" color-interpolation-filters="sRGB">
<feFlood flood-opacity="0" result="BackgroundImageFix"/>
<feColorMatrix in="SourceAlpha" type="matrix" values="0 0 0 0 0 0 0 0 0 0 0 0 0 0 0 0 0 0 127 0" result="hardAlpha"/>
<feOffset dy="4"/>
<feGaussianBlur stdDeviation="2"/>
<feComposite in2="hardAlpha" operator="out"/>
<feColorMatrix type="matrix" values="0 0 0 0 0 0 0 0 0 0 0 0 0 0 0 0 0 0 0.25 0"/>
<feBlend mode="normal" in2="BackgroundImageFix" result="effect1_dropShadow_1_3"/>
<feBlend mode="normal" in="SourceGraphic" in2="effect1_dropShadow_1_3" result="shape"/>
</filter>
<filter id="filter16_d_1_3" x="213.989" y="43.1481" width="227.591" height="149.112" filterUnits="userSpaceOnUse" color-interpolation-filters="sRGB">
<feFlood flood-opacity="0" result="BackgroundImageFix"/>
<feColorMatrix in="SourceAlpha" type="matrix" values="0 0 0 0 0 0 0 0 0 0 0 0 0 0 0 0 0 0 127 0" result="hardAlpha"/>
<feOffset dy="4"/>
<feGaussianBlur stdDeviation="2"/>
<feComposite in2="hardAlpha" operator="out"/>
<feColorMatrix type="matrix" values="0 0 0 0 0 0 0 0 0 0 0 0 0 0 0 0 0 0 0.25 0"/>
<feBlend mode="normal" in2="BackgroundImageFix" result="effect1_dropShadow_1_3"/>
<feBlend mode="normal" in="SourceGraphic" in2="effect1_dropShadow_1_3" result="shape"/>
</filter>
<filter id="filter17_d_1_3" x="394.944" y="113.07" width="24.0182" height="24.0182" filterUnits="userSpaceOnUse" color-interpolation-filters="sRGB">
<feFlood flood-opacity="0" result="BackgroundImageFix"/>
<feColorMatrix in="SourceAlpha" type="matrix" values="0 0 0 0 0 0 0 0 0 0 0 0 0 0 0 0 0 0 127 0" result="hardAlpha"/>
<feOffset dy="4"/>
<feGaussianBlur stdDeviation="2"/>
<feComposite in2="hardAlpha" operator="out"/>
<feColorMatrix type="matrix" values="0 0 0 0 0 0 0 0 0 0 0 0 0 0 0 0 0 0 0.25 0"/>
<feBlend mode="normal" in2="BackgroundImageFix" result="effect1_dropShadow_1_3"/>
<feBlend mode="normal" in="SourceGraphic" in2="effect1_dropShadow_1_3" result="shape"/>
</filter>
<filter id="filter18_d_1_3" x="340.214" y="75.9534" width="24.0182" height="24.0182" filterUnits="userSpaceOnUse" color-interpolation-filters="sRGB">
<feFlood flood-opacity="0" result="BackgroundImageFix"/>
<feColorMatrix in="SourceAlpha" type="matrix" values="0 0 0 0 0 0 0 0 0 0 0 0 0 0 0 0 0 0 127 0" result="hardAlpha"/>
<feOffset dy="4"/>
<feGaussianBlur stdDeviation="2"/>
<feComposite in2="hardAlpha" operator="out"/>
<feColorMatrix type="matrix" values="0 0 0 0 0 0 0 0 0 0 0 0 0 0 0 0 0 0 0.25 0"/>
<feBlend mode="normal" in2="BackgroundImageFix" result="effect1_dropShadow_1_3"/>
<feBlend mode="normal" in="SourceGraphic" in2="effect1_dropShadow_1_3" result="shape"/>
</filter>
<filter id="filter19_d_1_3" x="398.709" y="151.744" width="24.0182" height="24.0182" filterUnits="userSpaceOnUse" color-interpolation-filters="sRGB">
<feFlood flood-opacity="0" result="BackgroundImageFix"/>
<feColorMatrix in="SourceAlpha" type="matrix" values="0 0 0 0 0 0 0 0 0 0 0 0 0 0 0 0 0 0 127 0" result="hardAlpha"/>
<feOffset dy="4"/>
<feGaussianBlur stdDeviation="2"/>
<feComposite in2="hardAlpha" operator="out"/>
<feColorMatrix type="matrix" values="0 0 0 0 0 0 0 0 0 0 0 0 0 0 0 0 0 0 0.25 0"/>
<feBlend mode="normal" in2="BackgroundImageFix" result="effect1_dropShadow_1_3"/>
<feBlend mode="normal" in="SourceGraphic" in2="effect1_dropShadow_1_3" result="shape"/>
</filter>
<filter id="filter20_d_1_3" x="457.422" y="199.972" width="24.0182" height="24.0182" filterUnits="userSpaceOnUse" color-interpolation-filters="sRGB">
<feFlood flood-opacity="0" result="BackgroundImageFix"/>
<feColorMatrix in="SourceAlpha" type="matrix" values="0 0 0 0 0 0 0 0 0 0 0 0 0 0 0 0 0 0 127 0" result="hardAlpha"/>
<feOffset dy="4"/>
<feGaussianBlur stdDeviation="2"/>
<feComposite in2="hardAlpha" operator="out"/>
<feColorMatrix type="matrix" values="0 0 0 0 0 0 0 0 0 0 0 0 0 0 0 0 0 0 0.25 0"/>
<feBlend mode="normal" in2="BackgroundImageFix" result="effect1_dropShadow_1_3"/>
<feBlend mode="normal" in="SourceGraphic" in2="effect1_dropShadow_1_3" result="shape"/>
</filter>
<filter id="filter21_d_1_3" x="499.36" y="245.685" width="24.0183" height="24.0182" filterUnits="userSpaceOnUse" color-interpolation-filters="sRGB">
<feFlood flood-opacity="0" result="BackgroundImageFix"/>
<feColorMatrix in="SourceAlpha" type="matrix" values="0 0 0 0 0 0 0 0 0 0 0 0 0 0 0 0 0 0 127 0" result="hardAlpha"/>
<feOffset dy="4"/>
<feGaussianBlur stdDeviation="2"/>
<feComposite in2="hardAlpha" operator="out"/>
<feColorMatrix type="matrix" values="0 0 0 0 0 0 0 0 0 0 0 0 0 0 0 0 0 0 0.25 0"/>
<feBlend mode="normal" in2="BackgroundImageFix" result="effect1_dropShadow_1_3"/>
<feBlend mode="normal" in="SourceGraphic" in2="effect1_dropShadow_1_3" result="shape"/>
</filter>
<filter id="filter22_d_1_3" x="425.549" y="173.552" width="24.0182" height="24.0182" filterUnits="userSpaceOnUse" color-interpolation-filters="sRGB">
<feFlood flood-opacity="0" result="BackgroundImageFix"/>
<feColorMatrix in="SourceAlpha" type="matrix" values="0 0 0 0 0 0 0 0 0 0 0 0 0 0 0 0 0 0 127 0" result="hardAlpha"/>
<feOffset dy="4"/>
<feGaussianBlur stdDeviation="2"/>
<feComposite in2="hardAlpha" operator="out"/>
<feColorMatrix type="matrix" values="0 0 0 0 0 0 0 0 0 0 0 0 0 0 0 0 0 0 0.25 0"/>
<feBlend mode="normal" in2="BackgroundImageFix" result="effect1_dropShadow_1_3"/>
<feBlend mode="normal" in="SourceGraphic" in2="effect1_dropShadow_1_3" result="shape"/>
</filter>
<linearGradient id="paint0_linear_1_3" x1="167.346" y1="221.264" x2="171.044" y2="355.76" gradientUnits="userSpaceOnUse">
<stop stop-color="#B7161A"/>
<stop offset="1" stop-color="#4B060B"/>
</linearGradient>
<linearGradient id="paint1_linear_1_3" x1="288.477" y1="266.602" x2="288.477" y2="551.743" gradientUnits="userSpaceOnUse">
<stop stop-color="#B7161A"/>
<stop offset="1" stop-color="#4B060B"/>
</linearGradient>
<linearGradient id="paint2_linear_1_3" x1="288.826" y1="264.796" x2="288.826" y2="553.542" gradientUnits="userSpaceOnUse">
<stop stop-color="#B7161A"/>
<stop offset="1" stop-color="#4B060B"/>
</linearGradient>
<linearGradient id="paint3_linear_1_3" x1="336.679" y1="268.339" x2="336.679" y2="526.258" gradientUnits="userSpaceOnUse">
<stop stop-color="#B7161A"/>
<stop offset="1" stop-color="#4B060B"/>
</linearGradient>
<linearGradient id="paint4_linear_1_3" x1="336.685" y1="266.508" x2="336.685" y2="528.245" gradientUnits="userSpaceOnUse">
<stop stop-color="#B7161A"/>
<stop offset="1" stop-color="#4B060B"/>
</linearGradient>
<linearGradient id="paint5_linear_1_3" x1="348.01" y1="298.865" x2="348.01" y2="507.324" gradientUnits="userSpaceOnUse">
<stop stop-color="#B7161A"/>
<stop offset="1" stop-color="#4B060B"/>
</linearGradient>
<linearGradient id="paint6_linear_1_3" x1="348.017" y1="297.036" x2="348.017" y2="509.36" gradientUnits="userSpaceOnUse">
<stop stop-color="#B7161A"/>
<stop offset="1" stop-color="#4B060B"/>
</linearGradient>
<linearGradient id="paint7_linear_1_3" x1="279.416" y1="308.703" x2="279.416" y2="352.012" gradientUnits="userSpaceOnUse">
<stop stop-color="#B7161A"/>
<stop offset="1" stop-color="#4B060B"/>
</linearGradient>
<linearGradient id="paint8_linear_1_3" x1="310.384" y1="271.995" x2="310.384" y2="298.971" gradientUnits="userSpaceOnUse">
<stop stop-color="#4B060B"/>
<stop offset="1" stop-color="#B7161A"/>
</linearGradient>
<linearGradient id="paint9_linear_1_3" x1="347.739" y1="0" x2="347.739" y2="256.404" gradientUnits="userSpaceOnUse">
<stop stop-color="#4B060B"/>
<stop offset="1" stop-color="#B7161A"/>
</linearGradient>
<linearGradient id="paint10_linear_1_3" x1="335.139" y1="23.8307" x2="335.139" y2="211.158" gradientUnits="userSpaceOnUse">
<stop stop-color="#4B060B"/>
<stop offset="1" stop-color="#B7161A"/>
</linearGradient>
<linearGradient id="paint11_linear_1_3" x1="327.785" y1="43.1481" x2="327.785" y2="184.26" gradientUnits="userSpaceOnUse">
<stop stop-color="#4B060B"/>
<stop offset="1" stop-color="#B7161A"/>
</linearGradient>
</defs>
</svg>
